<?xml version="1.0" encoding="UTF-8" standalone="no"?>
<!DOCTYPE svg PUBLIC "-//W3C//DTD SVG 1.1//EN" "http://www.w3.org/Graphics/SVG/1.1/DTD/svg11.dtd">
<svg xmlns="http://www.w3.org/2000/svg" version="1.1" viewBox="0.00 0.00 1024.00 1024.00">
<g stroke-width="2.00" fill="none" stroke-linecap="butt">
<path stroke="#8c9c9f" vector-effect="non-scaling-stroke" d="
  M 269.24 346.52
  C 252.40 371.49 239.53 399.02 231.62 427.99
  Q 228.50 439.39 227.63 443.66
  Q 219.55 483.07 221.94 526.59
  C 222.94 544.78 226.02 562.97 231.27 580.54
  C 236.38 597.66 242.38 613.70 250.59 630.22"
/>
<path stroke="#8a9898" vector-effect="non-scaling-stroke" d="
  M 250.59 630.22
  Q 263.35 656.20 277.32 673.93
  Q 289.12 688.91 298.22 699.03
  Q 312.55 714.97 331.95 730.31
  Q 333.95 731.89 337.10 733.99
  C 341.53 736.95 346.21 740.65 350.01 743.13
  C 392.74 771.00 441.41 788.01 492.18 791.96
  Q 525.81 794.58 564.87 787.04
  Q 641.37 772.26 699.53 724.07
  C 725.28 702.74 747.36 675.81 764.44 646.97
  C 768.20 640.63 771.39 633.83 774.57 627.10
  Q 795.94 581.94 800.78 532.33
  C 801.83 521.58 801.72 511.32 801.64 499.88
  Q 801.31 447.85 781.47 400.61"
/>
<path stroke="#8c9c9f" vector-effect="non-scaling-stroke" d="
  M 781.47 400.61
  Q 778.91 393.74 774.92 387.44
  A 0.88 0.87 -48.6 0 0 773.39 387.54
  Q 766.99 401.27 754.87 413.31
  Q 742.18 425.91 726.03 431.81
  Q 722.67 433.04 719.07 434.15
  Q 716.83 434.84 714.60 435.14
  Q 711.62 435.55 710.16 436.16
  Q 705.16 438.21 705.16 446.22"
/>
<path stroke="#f7ab7a" vector-effect="non-scaling-stroke" d="
  M 705.16 446.22
  Q 684.60 467.27 663.98 487.49
  Q 661.81 489.61 661.91 490.99
  Q 663.01 507.04 661.68 522.91"
/>
<path stroke="#f1a67a" vector-effect="non-scaling-stroke" d="
  M 661.68 522.91
  Q 660.92 528.25 659.99 533.49
  Q 656.49 553.29 647.70 571.21
  Q 629.06 609.22 593.29 631.91
  Q 584.79 637.31 575.59 641.34
  C 548.58 653.17 518.57 658.00 489.45 653.78
  Q 485.71 653.24 477.23 651.53
  C 454.02 646.84 432.36 635.91 414.20 620.61"
/>
<path stroke="#f7ab7a" vector-effect="non-scaling-stroke" d="
  M 414.20 620.61
  Q 405.16 612.42 402.40 609.60
  C 390.09 597.00 379.84 582.20 373.04 565.93
  C 368.90 556.03 365.43 546.65 363.66 535.89
  C 359.06 508.09 361.06 478.51 372.17 452.68
  Q 376.64 442.26 382.53 432.43"
/>
<path stroke="#feb279" vector-effect="non-scaling-stroke" d="
  M 382.53 432.43
  Q 398.16 407.18 421.94 389.55
  C 426.06 386.50 430.69 383.79 435.10 381.00
  Q 440.04 377.88 444.79 375.64
  Q 488.92 354.86 537.57 363.45
  Q 561.79 367.73 583.02 380.74
  Q 584.45 381.62 585.87 381.15"
/>
<path stroke="#8c9c9f" vector-effect="non-scaling-stroke" d="
  M 585.87 381.15
  Q 607.94 359.51 629.62 337.44
  C 630.95 336.09 632.87 335.45 633.20 333.38
  C 636.51 312.82 649.77 296.92 670.00 291.57
  Q 679.23 289.13 687.34 290.08
  C 710.70 292.81 728.60 309.33 731.15 333.08
  Q 732.57 346.36 726.89 357.81
  Q 712.22 387.38 679.22 385.92
  Q 663.95 385.24 651.96 375.41
  C 648.87 372.87 646.49 369.68 643.62 366.78
  Q 641.67 364.82 639.03 364.84
  Q 637.03 364.86 634.89 367.01
  Q 620.06 381.96 606.52 395.53
  C 583.60 418.51 560.69 441.45 533.47 468.34
  C 520.65 481.02 507.30 494.39 495.58 506.58
  Q 490.92 511.43 484.95 510.82
  C 482.31 510.55 480.49 509.21 478.68 507.39
  Q 469.02 497.73 459.42 488.01
  Q 450.74 479.21 439.48 478.08
  Q 421.33 476.27 407.93 487.44
  C 396.52 496.97 391.78 510.64 393.37 525.53
  Q 394.92 540.05 404.88 550.30
  Q 429.19 575.29 455.09 600.82
  Q 462.42 608.05 466.90 610.35
  Q 476.13 615.10 486.57 614.16
  Q 499.29 613.01 507.84 604.59
  Q 539.84 573.04 569.96 542.71
  Q 583.94 528.64 600.46 512.23
  Q 645.28 467.72 696.28 416.75
  Q 697.94 415.09 700.34 414.27
  Q 703.64 413.14 706.92 412.21
  Q 731.36 405.32 746.52 384.88"
/>
<path stroke="#8a9898" vector-effect="non-scaling-stroke" d="
  M 746.52 384.88
  C 758.99 367.31 763.80 345.34 760.00 324.26
  C 755.73 300.65 741.39 281.16 720.36 269.27"
/>
<path stroke="#8fa3ab" vector-effect="non-scaling-stroke" d="
  M 720.36 269.27
  Q 714.59 265.86 709.82 264.14
  Q 689.35 256.73 666.81 261.20
  C 663.44 261.86 660.11 263.24 656.75 264.14
  C 647.82 266.53 638.86 272.76 632.05 278.97
  Q 629.80 281.02 630.30 278.02
  L 634.88 250.69
  A 1.51 1.51 0.0 0 0 634.23 249.19
  Q 629.30 245.85 623.80 243.48
  Q 594.39 230.78 569.13 225.57
  C 544.92 220.58 519.48 218.09 495.01 219.75
  Q 488.89 220.16 482.91 221.06
  C 473.29 222.51 463.76 223.43 454.25 225.49
  Q 438.84 228.84 421.76 234.52
  Q 398.65 242.21 380.54 250.99
  Q 354.02 263.85 329.00 282.71
  Q 311.35 296.02 294.14 315.39
  Q 280.30 330.96 269.24 346.52"
/>
<path stroke="#1a3c51" vector-effect="non-scaling-stroke" d="
  M 720.36 269.27
  Q 722.13 271.53 724.72 273.28
  Q 728.18 275.62 729.46 276.68
  Q 731.99 278.79 734.57 280.65
  C 736.09 281.74 737.01 283.50 738.41 284.88
  Q 752.02 298.24 756.76 317.01
  Q 757.89 321.49 758.67 326.37
  Q 759.40 330.96 759.53 335.64
  Q 759.66 340.54 759.59 345.18
  Q 759.53 348.88 758.28 352.73
  C 757.74 354.41 757.74 356.21 757.14 357.95"
/>
<path stroke="#1c4058" vector-effect="non-scaling-stroke" d="
  M 757.14 357.95
  C 755.70 359.15 755.94 360.78 755.48 362.01
  Q 754.55 364.45 753.89 367.18
  A 0.84 0.84 0.0 0 1 752.42 367.51
  Q 751.91 366.88 751.48 366.15
  Q 751.20 365.67 751.17 366.22
  Q 751.16 366.37 751.05 366.49
  Q 750.64 366.94 750.48 366.35
  Q 750.20 365.24 749.57 364.36
  Q 749.29 363.96 748.84 363.77
  Q 745.54 362.38 743.10 359.86
  Q 743.07 359.83 743.06 359.87
  Q 743.01 360.01 742.90 360.07
  Q 742.49 360.26 742.20 359.92
  Q 741.60 359.23 740.62 358.75
  Q 740.02 358.45 739.42 358.58
  Q 738.43 358.78 737.61 357.87
  Q 737.42 357.65 737.15 357.75
  Q 736.20 358.09 735.84 357.09
  Q 735.64 356.55 735.11 356.76
  Q 734.45 357.03 733.69 357.16
  Q 732.92 357.30 732.53 356.71
  Q 732.28 356.31 732.50 355.90
  Q 732.83 355.31 732.52 354.69
  Q 732.39 354.45 732.15 354.31
  Q 730.99 353.63 731.46 352.29
  Q 731.52 352.11 731.71 352.15
  Q 731.87 352.18 731.97 352.07
  Q 732.11 351.92 732.10 351.71
  Q 732.07 349.76 732.42 347.91
  Q 733.80 340.70 732.93 328.52
  Q 732.92 328.37 732.77 328.37
  Q 732.72 328.37 732.67 328.35
  Q 732.44 328.26 732.42 328.01
  Q 732.31 326.24 731.74 324.52
  Q 728.89 315.90 723.45 308.50
  Q 722.70 307.49 721.77 306.51
  C 720.27 304.94 719.18 303.20 717.54 301.73
  Q 713.75 298.32 709.74 295.20
  Q 709.03 294.65 708.11 294.36
  Q 707.24 294.09 706.39 293.82
  Q 705.15 293.42 704.02 292.65
  Q 702.66 291.72 701.07 291.64
  Q 700.60 291.61 700.21 291.36
  C 696.05 288.64 692.73 289.04 688.29 288.81
  C 686.42 288.71 684.29 287.54 682.25 287.92
  Q 676.92 288.91 671.54 289.61
  Q 669.15 289.92 667.08 290.72
  Q 664.92 291.55 662.77 292.42
  Q 660.19 293.47 657.20 295.28
  Q 654.44 296.95 651.80 298.43
  Q 648.82 300.09 645.54 303.82
  Q 642.59 307.16 640.36 310.64
  Q 636.94 315.98 634.24 323.15
  Q 632.88 326.76 631.90 333.59
  Q 631.84 334.04 631.51 334.36
  Q 620.20 345.42 608.38 357.21
  Q 606.95 358.64 604.65 360.55
  Q 602.67 362.18 600.95 363.85
  Q 597.37 367.31 593.83 370.78
  Q 592.52 372.06 591.38 373.54
  Q 590.24 375.02 588.96 376.28
  A 0.60 0.60 0.0 0 1 587.94 375.95
  Q 587.74 374.72 587.88 373.39
  Q 588.31 369.25 588.02 365.02
  Q 588.00 364.84 587.87 364.73
  Q 587.60 364.52 587.61 364.18
  L 587.92 356.94"
/>
<path stroke="#8e5632" vector-effect="non-scaling-stroke" d="
  M 587.92 356.94
  Q 589.16 340.91 590.34 330.01
  Q 590.53 328.32 589.94 326.98
  Q 589.76 326.56 589.33 326.40
  Q 577.88 322.17 566.04 319.31
  C 561.20 318.14 555.64 316.06 553.79 310.91
  Q 553.22 309.31 553.29 305.55
  Q 553.38 300.00 553.40 294.53
  Q 553.42 284.49 553.28 283.51
  C 552.01 274.50 543.94 266.76 534.36 266.79
  Q 513.43 266.86 489.72 266.91
  C 483.86 266.92 479.47 268.34 475.41 272.58
  Q 470.21 278.01 469.95 284.46
  Q 469.56 294.28 469.79 307.20
  C 469.89 312.97 466.49 316.33 460.90 317.68
  C 455.08 319.08 449.29 320.44 443.67 322.21
  Q 426.82 327.50 409.80 336.50
  C 404.67 339.21 398.57 341.85 393.83 336.57
  Q 388.69 330.85 383.77 325.36
  Q 379.77 320.91 376.13 318.85
  C 371.64 316.32 362.93 315.85 358.10 319.35
  Q 355.08 321.55 351.86 324.59
  Q 341.42 334.48 330.97 344.31"
/>
<path stroke="#1c4058" vector-effect="non-scaling-stroke" d="
  M 330.97 344.31
  Q 329.15 344.80 328.27 346.34
  Q 327.98 346.86 327.41 347.02
  Q 325.30 347.65 324.73 349.57
  Q 324.59 350.06 324.07 350.12
  Q 322.77 350.26 321.92 351.57
  Q 321.69 351.94 321.40 351.65
  Q 321.36 351.61 321.31 351.61
  Q 320.23 351.64 321.07 350.96
  Q 321.50 350.61 321.89 350.22
  Q 322.49 349.61 321.65 349.52
  Q 320.07 349.34 319.03 350.67
  Q 318.69 351.10 318.15 351.03
  Q 317.13 350.91 316.43 351.74
  Q 316.11 352.13 315.61 352.17
  Q 314.11 352.30 313.02 351.46
  Q 312.71 351.22 312.33 351.28
  Q 308.45 351.80 304.88 352.15
  Q 303.51 352.28 302.13 352.89
  Q 301.66 353.10 301.14 353.11
  L 298.00 353.15
  A 0.67 0.67 0.0 0 0 297.34 353.82
  Q 297.35 355.09 296.26 355.13
  Q 293.99 355.21 291.79 355.59
  Q 291.30 355.67 290.92 355.35
  Q 289.23 353.92 287.68 355.48
  Q 287.26 355.91 286.92 355.41
  Q 286.80 355.24 286.79 355.03
  Q 286.74 354.55 286.28 354.71
  Q 286.15 354.76 286.01 354.78
  Q 285.37 354.86 285.37 355.50
  L 285.37 356.14
  Q 285.37 356.59 284.95 356.75
  Q 282.93 357.53 280.87 357.54
  Q 280.36 357.55 280.06 357.96
  Q 279.83 358.27 279.86 358.65
  Q 279.89 359.10 279.44 359.08
  Q 278.57 359.04 277.97 358.33
  Q 277.58 357.87 277.22 358.37
  Q 277.07 358.59 276.85 358.75
  Q 274.66 360.37 272.79 359.30
  Q 272.21 358.96 272.33 359.62
  Q 272.37 359.80 272.36 360.00
  Q 272.35 360.27 272.48 360.03
  Q 272.50 359.98 272.56 359.97
  Q 272.80 359.96 272.87 360.21
  Q 273.02 360.78 272.59 361.09
  Q 272.48 361.17 272.36 361.12
  Q 272.17 361.03 272.10 360.84
  Q 271.92 360.38 271.82 360.86
  Q 271.61 361.81 270.65 362.05
  Q 270.22 362.17 270.58 362.42
  Q 270.75 362.54 270.52 362.70
  Q 270.14 362.96 269.82 362.65
  Q 269.43 362.27 268.94 362.16
  Q 268.51 362.05 268.06 362.29
  Q 266.43 363.17 265.20 361.63
  Q 264.92 361.29 265.10 360.88
  Q 265.27 360.50 264.98 360.19
  Q 264.88 360.07 264.73 360.12
  Q 264.51 360.20 264.30 360.13
  Q 263.77 359.95 263.97 359.43
  Q 265.67 355.05 267.83 350.90
  Q 268.22 350.15 269.16 349.04
  Q 270.84 347.06 269.24 346.52"
/>
<path stroke="#844827" vector-effect="non-scaling-stroke" d="
  M 267.87 510.22
  Q 267.86 516.99 267.89 523.78
  Q 267.94 533.55 269.29 536.58
  Q 271.94 542.56 277.65 545.43
  C 280.84 547.03 284.43 547.23 287.92 547.23
  Q 296.96 547.22 305.03 547.31
  Q 314.42 547.41 316.49 555.01
  Q 321.23 572.34 324.37 580.16"
/>
<path stroke="#173445" vector-effect="non-scaling-stroke" d="
  M 324.37 580.16
  Q 323.80 581.23 324.35 581.77
  Q 324.61 582.04 324.61 582.41
  Q 324.63 583.78 325.46 584.89
  Q 325.62 585.11 325.62 585.38
  Q 325.62 585.52 325.62 585.66
  Q 325.60 586.21 325.97 586.60
  Q 327.34 588.04 327.68 589.99
  Q 327.76 590.48 328.05 590.88
  Q 328.56 591.61 328.78 592.47
  Q 328.91 592.94 329.27 593.26
  Q 329.99 593.92 329.58 594.99
  Q 329.44 595.33 329.37 594.97
  Q 329.33 594.78 329.17 594.68
  A 0.28 0.27 33.7 0 0 328.79 594.75
  Q 328.46 595.20 328.39 595.71
  Q 328.37 595.85 328.23 595.84
  Q 328.08 595.83 327.93 595.80
  Q 327.54 595.73 327.64 595.35
  Q 327.77 594.85 327.53 594.36
  A 0.37 0.36 -31.8 0 0 326.98 594.24
  Q 326.26 594.81 326.96 595.40
  Q 327.09 595.51 326.96 595.62
  Q 324.46 597.58 321.70 598.10
  Q 321.24 598.18 320.94 598.55
  Q 320.16 599.50 319.08 599.99
  Q 318.35 600.32 317.86 600.94
  Q 317.24 601.71 316.91 602.58
  Q 316.76 603.01 316.32 603.08
  Q 315.67 603.20 315.49 603.78
  Q 315.40 604.08 315.37 603.77
  Q 315.36 603.72 315.34 603.67
  Q 315.24 603.51 315.06 603.56
  Q 312.71 604.17 311.92 606.47
  Q 311.74 606.99 311.26 607.23
  L 308.67 608.54
  Q 308.50 608.63 308.56 608.80
  Q 308.61 608.95 308.77 608.98
  Q 309.56 609.13 308.76 609.11
  Q 308.45 609.10 308.24 609.34
  Q 308.11 609.48 308.12 609.67
  Q 308.13 609.81 308.16 609.95
  Q 308.21 610.22 308.00 610.39
  Q 307.56 610.76 307.12 610.44
  A 2.51 2.19 -29.4 0 0 305.29 610.06
  Q 304.88 610.13 304.92 610.57
  Q 304.98 611.10 304.48 611.29
  L 300.30 612.89
  Q 299.88 613.05 299.59 613.39
  Q 298.94 614.14 297.98 614.29
  Q 297.78 614.32 297.65 614.47
  Q 297.58 614.54 297.66 614.59
  Q 298.18 614.96 297.55 615.12
  Q 295.68 615.59 294.17 615.56
  Q 293.60 615.54 293.11 615.82
  Q 292.04 616.42 290.72 616.03
  A 0.79 0.78 -83.5 0 0 289.72 616.83
  Q 289.78 618.16 288.71 618.86
  Q 287.82 619.44 288.11 618.42
  Q 288.42 617.37 287.47 616.99
  A 0.24 0.24 0.0 0 0 287.14 617.26
  Q 287.19 617.54 287.06 617.76
  Q 286.88 618.08 286.51 618.13
  Q 286.05 618.18 285.90 617.90
  Q 285.68 617.47 285.29 617.77
  Q 285.02 617.98 285.18 618.11
  Q 285.56 618.39 285.20 618.70
  Q 284.36 619.42 284.59 620.51
  Q 284.64 620.75 284.45 620.60
  Q 284.29 620.47 284.23 620.27
  Q 284.08 619.80 283.81 620.22
  L 282.87 621.71
  Q 282.62 622.10 282.19 622.26
  Q 280.90 622.74 279.52 623.10
  Q 278.52 623.36 278.00 622.49
  Q 277.80 622.14 277.40 622.17
  Q 276.45 622.23 275.60 621.62
  Q 275.17 621.31 275.66 621.11
  Q 275.88 621.03 275.83 620.79
  Q 275.75 620.35 275.36 620.13
  Q 273.76 619.20 271.87 619.04
  Q 271.46 619.01 271.27 618.63
  Q 271.20 618.48 271.13 618.33
  Q 270.84 617.66 270.25 618.08
  Q 269.95 618.30 269.91 618.64
  Q 269.87 618.98 269.53 618.91
  Q 269.33 618.86 269.14 618.74
  Q 268.87 618.58 268.80 618.26
  Q 268.31 616.00 267.88 613.99
  Q 267.77 613.49 267.27 613.57
  Q 264.02 614.09 261.38 613.41
  Q 259.84 613.02 258.37 613.46
  Q 257.92 613.60 257.46 613.53
  Q 256.49 613.39 255.58 613.04
  Q 254.54 612.65 253.36 612.92
  Q 251.05 613.46 249.84 615.24
  Q 249.57 615.63 249.11 615.70
  Q 248.21 615.85 247.48 615.43
  Q 247.06 615.19 246.85 615.63
  L 246.61 616.11
  Q 246.59 616.16 246.60 616.11
  Q 246.80 615.25 246.35 614.46
  Q 246.07 613.96 245.60 614.29
  Q 245.26 614.53 245.04 614.90
  Q 244.84 615.23 244.96 615.59
  Q 245.26 616.47 245.11 617.45
  A 0.28 0.28 0.0 0 0 245.54 617.73
  Q 245.85 617.53 245.83 617.17
  Q 245.79 616.67 246.14 617.03
  Q 246.20 617.09 246.27 617.11
  Q 246.88 617.33 246.36 617.70
  Q 246.05 617.92 246.06 618.30
  A 1.05 1.05 0.0 0 0 246.47 619.09
  Q 247.05 619.55 246.97 620.36
  Q 246.78 622.17 247.85 623.37
  Q 248.19 623.76 248.10 624.27
  Q 248.04 624.63 248.36 624.79
  Q 248.93 625.08 248.94 625.72
  Q 248.95 626.68 249.79 626.87
  Q 250.25 626.98 250.52 627.38
  Q 250.89 627.94 250.73 628.49
  Q 250.69 628.64 250.87 629.27
  Q 250.97 629.60 250.59 630.22"
/>
<path stroke="#173445" vector-effect="non-scaling-stroke" d="
  M 746.52 384.88
  Q 745.55 383.72 746.74 382.67
  Q 747.19 382.28 747.35 381.72
  C 747.82 380.17 748.89 379.32 749.56 377.97
  Q 752.00 373.04 754.18 368.06
  C 755.60 364.83 756.07 361.39 757.14 357.95"
/>
<path stroke="#8b4f26" vector-effect="non-scaling-stroke" d="
  M 587.92 356.94
  Q 586.61 367.33 586.73 377.76
  Q 586.75 379.08 585.39 380.43
  Q 585.07 380.75 585.47 380.96
  Q 585.64 381.05 585.87 381.15"
/>
<path stroke="#f65e01" vector-effect="non-scaling-stroke" d="
  M 382.53 432.43
  Q 378.51 435.46 375.86 440.56
  Q 375.61 441.03 375.55 441.58
  A 0.17 0.17 0.0 0 1 375.29 441.70
  Q 375.14 441.60 375.13 441.42
  Q 375.07 440.79 375.08 441.43
  Q 375.09 441.75 375.22 442.04
  Q 375.47 442.61 374.89 442.86
  Q 374.32 443.12 374.44 443.72
  Q 374.55 444.25 374.14 444.61
  Q 373.55 445.13 373.53 445.91
  Q 373.52 446.28 373.21 446.47
  Q 372.48 446.93 372.46 447.80
  A 1.49 1.48 69.3 0 1 371.98 448.87
  Q 371.49 449.32 371.49 449.98
  Q 371.49 450.31 371.20 450.46
  Q 371.03 450.54 370.91 450.67
  Q 370.63 450.97 370.59 451.39
  Q 370.53 452.07 369.94 452.39
  Q 369.53 452.60 369.49 453.05
  Q 369.41 453.78 368.68 454.17
  Q 368.21 454.42 367.77 454.13
  Q 367.05 453.67 366.35 454.22
  Q 365.97 454.52 365.82 454.06
  Q 365.75 453.83 365.44 453.98
  Q 365.03 454.16 364.86 454.58
  Q 364.77 454.80 364.55 454.93
  Q 364.14 455.15 363.67 455.09
  Q 360.99 454.68 358.82 457.05
  Q 358.51 457.39 358.09 457.19
  L 357.12 456.74
  A 0.84 0.81 46.3 0 0 356.48 456.71
  Q 355.69 456.99 355.46 457.82
  Q 355.34 458.23 355.01 458.51
  Q 354.32 459.09 354.01 459.91
  Q 353.78 460.50 353.22 460.21
  Q 350.81 458.98 349.70 461.34
  A 0.84 0.83 -79.3 0 1 348.99 461.83
  Q 348.45 461.85 348.06 462.19
  Q 347.66 462.52 347.15 462.41
  Q 346.07 462.19 344.62 462.40
  Q 344.15 462.47 344.16 462.92
  Q 344.16 463.52 343.58 463.62
  Q 343.27 463.68 342.98 463.58
  Q 342.48 463.42 341.99 463.62
  Q 336.93 465.72 331.37 466.14
  Q 331.25 466.15 331.13 466.20
  Q 331.00 466.25 330.91 466.37
  Q 330.70 466.64 330.36 466.56
  Q 328.67 466.17 327.10 467.42
  Q 326.77 467.68 326.36 467.62
  Q 325.69 467.51 325.13 467.91
  Q 324.38 468.46 323.46 468.73
  Q 321.24 469.38 318.87 470.41
  Q 318.35 470.63 317.79 470.57
  Q 317.11 470.50 316.79 471.07
  A 1.01 1.01 0.0 0 1 316.02 471.59
  Q 315.26 471.68 314.50 471.69
  Q 314.12 471.69 314.35 471.99
  Q 314.46 472.15 314.16 472.29
  Q 313.79 472.46 313.40 472.34
  Q 311.87 471.87 310.59 473.19
  Q 309.55 474.26 308.62 475.28
  Q 308.30 475.64 307.82 475.70
  Q 306.80 475.83 306.30 476.79
  Q 306.06 477.23 305.63 477.49
  L 302.80 479.17
  Q 302.38 479.42 301.88 479.40
  L 299.29 479.31
  Q 298.81 479.29 298.38 479.07
  Q 296.04 477.85 293.35 477.34
  Q 292.16 477.11 290.99 477.30
  Q 289.78 477.49 288.55 477.14
  C 287.28 476.78 286.32 477.02 285.11 476.80
  Q 283.93 476.59 282.84 477.01
  Q 280.23 478.00 278.12 479.42
  A 0.36 0.36 0.0 0 0 278.23 480.07
  Q 278.95 480.25 279.57 480.05
  Q 279.63 480.03 279.64 480.10
  Q 279.65 480.19 279.63 480.10
  Q 279.62 480.03 279.56 480.06
  Q 278.45 480.54 277.28 480.54
  Q 276.58 480.54 276.28 481.17
  Q 275.42 482.96 274.89 484.81
  Q 274.55 485.98 273.58 486.73
  Q 273.20 487.03 272.97 486.60
  Q 272.62 485.97 271.92 486.11
  Q 271.43 486.21 271.31 486.70
  Q 270.78 488.77 270.90 490.61
  C 270.95 491.48 270.63 492.22 270.51 493.06
  Q 270.17 495.26 270.24 493.04
  Q 270.31 490.85 270.56 488.17
  Q 270.57 488.05 270.65 487.97
  Q 270.75 487.87 270.86 487.77
  Q 270.91 487.73 270.91 487.66
  L 271.13 483.75
  A 0.06 0.06 0.0 0 0 271.02 483.74
  Q 270.83 485.20 270.42 486.72
  Q 269.87 488.72 269.87 490.96
  Q 269.86 492.71 269.86 494.33
  Q 269.86 496.04 269.23 497.42
  Q 268.17 499.76 268.58 502.32
  Q 268.62 502.56 268.43 502.70
  L 268.22 502.86
  A 0.87 0.87 0.0 0 0 267.89 503.54
  L 267.87 510.22"
/>
<path stroke="#8b4f26" vector-effect="non-scaling-stroke" d="
  M 267.87 510.22
  Q 267.86 499.95 267.88 489.69
  Q 267.88 483.26 268.86 480.49
  C 271.26 473.68 277.98 467.69 284.93 467.57
  Q 294.99 467.40 307.27 467.60
  C 312.52 467.68 315.12 462.52 316.01 458.13
  Q 321.48 431.06 334.97 407.38
  C 337.53 402.89 337.67 398.56 333.55 394.76
  Q 326.42 388.19 320.16 381.52
  C 314.60 375.59 312.52 367.98 316.79 360.46
  C 320.41 354.09 325.89 349.62 330.97 344.31"
/>
<path stroke="#e85201" vector-effect="non-scaling-stroke" d="
  M 414.20 620.61
  Q 413.73 621.61 415.55 623.19
  Q 417.76 625.09 424.18 629.30
  Q 426.30 630.69 428.08 632.31
  Q 428.48 632.68 429.01 632.83
  C 430.06 633.12 430.22 633.79 431.16 634.30
  Q 437.32 637.64 442.93 640.66
  Q 443.54 640.99 443.10 641.53
  Q 442.84 641.84 442.83 642.24
  Q 442.82 642.92 442.14 642.84
  Q 441.21 642.73 440.58 642.30
  Q 440.22 642.07 439.85 642.28
  Q 438.88 642.82 437.85 642.24
  A 2.31 2.19 60.6 0 0 436.94 641.96
  Q 432.04 641.60 428.17 642.16
  Q 426.54 642.39 424.98 643.06
  Q 424.49 643.28 424.05 643.17
  Q 423.41 643.02 422.84 642.69
  Q 422.41 642.45 421.99 642.70
  Q 421.45 643.02 420.95 642.65
  Q 420.55 642.34 420.19 642.70
  Q 419.31 643.58 418.11 643.21
  C 417.54 643.04 417.17 643.13 416.67 643.43
  A 4.90 3.89 29.3 0 1 413.64 643.92
  Q 412.29 643.70 410.97 644.47
  Q 410.47 644.75 410.05 644.37
  Q 409.04 643.48 407.84 644.19
  Q 407.54 644.37 407.23 644.21
  Q 405.72 643.45 403.83 643.34
  C 403.37 643.31 402.85 643.03 402.58 642.65
  Q 402.34 642.31 401.99 642.54
  Q 401.12 643.10 400.31 642.43
  Q 399.91 642.10 399.40 642.05
  L 389.12 640.99
  Q 388.58 640.93 388.15 640.60
  Q 387.12 639.82 385.88 640.21
  Q 385.18 640.43 384.59 639.99
  Q 383.74 639.35 382.79 639.32
  Q 382.40 639.30 382.30 638.92
  Q 382.21 638.54 381.71 638.39
  A 0.73 0.69 42.5 0 0 381.26 638.40
  L 379.72 638.93
  Q 379.29 639.08 378.87 638.90
  Q 376.71 638.02 374.53 637.22
  C 373.75 636.94 372.89 637.13 372.19 637.51
  Q 371.81 637.72 371.50 637.41
  Q 370.78 636.67 369.78 636.92
  A 0.55 0.54 -13.0 0 1 369.12 636.51
  Q 369.04 636.18 368.70 636.14
  Q 368.27 636.08 367.86 636.23
  Q 366.85 636.61 366.18 635.65
  Q 365.91 635.26 365.44 635.31
  Q 365.23 635.33 365.03 635.43
  Q 364.58 635.64 364.14 635.40
  Q 361.08 633.74 357.73 634.09
  Q 357.41 634.13 357.16 633.92
  Q 357.04 633.82 356.91 633.73
  Q 356.46 633.42 355.95 633.61
  Q 354.19 634.28 352.76 632.87
  A 1.66 1.66 0.0 0 0 351.64 632.41
  Q 351.19 632.41 350.88 632.14
  Q 350.53 631.83 350.06 631.84
  Q 349.84 631.84 349.86 632.18
  Q 349.88 632.60 349.54 632.36
  Q 347.24 630.79 344.86 630.74
  Q 343.73 630.71 342.62 630.59
  Q 339.26 630.20 335.78 629.90
  Q 335.53 629.88 335.31 629.99
  Q 334.97 630.16 334.66 630.38
  A 0.90 0.90 0.0 0 1 333.81 630.48
  Q 331.81 629.67 330.04 630.50
  A 0.31 0.31 0.0 0 1 329.64 630.37
  Q 329.38 629.90 328.86 629.92
  Q 328.52 629.93 328.41 629.59
  Q 328.11 628.65 327.21 628.99
  Q 326.73 629.16 326.26 628.97
  Q 325.47 628.64 324.98 627.93
  Q 324.64 627.44 325.19 627.21
  Q 325.54 627.07 325.26 626.78
  Q 325.03 626.53 325.34 626.39
  Q 325.52 626.32 325.71 626.37
  Q 326.28 626.56 326.23 625.96
  Q 326.20 625.59 325.99 625.37
  Q 325.62 625.00 325.29 625.40
  Q 323.52 627.54 321.20 628.74"
/>
<path stroke="#814420" vector-effect="non-scaling-stroke" d="
  M 324.37 580.16
  Q 328.95 591.58 334.94 602.27
  C 336.24 604.58 338.19 609.32 337.12 612.00
  Q 336.10 614.57 334.13 616.39
  Q 327.61 622.41 321.20 628.74"
/>
<path stroke="#7b3f20" vector-effect="non-scaling-stroke" d="
  M 321.20 628.74
  C 314.48 634.63 312.43 643.61 317.56 650.94
  Q 321.59 656.70 327.38 662.32
  Q 340.64 675.19 354.79 689.24
  Q 358.25 692.67 361.59 694.67
  C 368.41 698.74 376.94 696.24 382.44 690.54
  Q 387.23 685.56 391.52 680.17
  C 396.09 674.41 401.18 671.02 408.50 675.41
  Q 416.83 680.42 424.92 684.56
  C 436.91 690.69 450.75 694.46 464.01 698.99
  C 468.51 700.53 469.98 703.89 469.90 708.48
  Q 469.79 716.00 469.72 723.51
  Q 469.68 728.40 470.53 731.33
  C 472.72 738.91 478.31 744.33 486.46 744.31
  Q 511.39 744.23 536.87 744.39
  Q 543.37 744.43 547.75 740.00
  C 551.08 736.63 553.25 732.31 553.25 727.59
  Q 553.24 717.48 553.51 705.36
  C 553.59 701.59 555.52 698.87 559.41 697.97
  C 578.11 693.68 596.58 687.09 612.67 676.93
  C 615.46 675.17 619.92 673.24 623.22 674.44
  C 626.13 675.49 628.45 677.72 630.46 680.00
  Q 636.07 686.40 642.17 692.60
  C 643.97 694.43 645.75 695.11 648.26 695.72
  Q 659.85 698.55 667.16 690.73
  Q 684.40 672.30 701.73 655.54
  C 709.84 647.70 710.68 638.80 702.76 630.36
  C 698.11 625.40 692.81 621.09 688.43 616.56
  Q 687.57 615.68 686.11 613.28"
/>
<path stroke="#814420" vector-effect="non-scaling-stroke" d="
  M 686.11 613.28
  C 684.46 609.69 687.12 605.23 688.90 601.83
  C 691.71 596.48 694.71 590.49 696.43 585.75
  Q 701.04 573.05 705.76 557.99
  C 707.64 551.98 709.62 547.19 716.75 547.25
  Q 729.14 547.36 741.39 546.82"
/>
<path stroke="#e85201" vector-effect="non-scaling-stroke" d="
  M 686.11 613.28
  Q 686.19 613.51 685.93 613.75
  Q 685.45 614.22 686.07 614.41
  Q 686.22 614.46 686.12 614.70
  Q 685.98 615.01 685.65 614.90
  Q 684.26 614.44 684.55 613.14
  Q 684.60 612.88 684.35 612.80
  Q 683.83 612.63 683.67 612.09
  Q 683.52 611.59 683.05 611.38
  L 680.81 610.37
  Q 680.36 610.16 680.02 610.53
  Q 679.29 611.33 678.28 610.94
  Q 676.05 610.09 673.97 609.56
  Q 672.86 609.27 672.08 608.43
  Q 671.75 608.08 671.27 608.10
  Q 670.45 608.14 669.57 608.00
  Q 668.95 607.91 668.05 607.41
  Q 666.86 606.74 665.67 606.61
  Q 665.20 606.55 664.97 606.14
  Q 664.65 605.58 664.02 605.43
  Q 663.24 605.25 662.54 605.59
  Q 661.41 606.14 660.41 605.43
  Q 659.98 605.13 659.45 605.09
  Q 656.44 604.89 653.73 603.79
  Q 651.95 603.06 649.96 602.80
  Q 648.21 602.57 646.99 601.59
  A 0.93 0.92 -44.1 0 0 645.83 601.58
  Q 644.40 602.69 642.70 602.36
  Q 642.24 602.27 642.03 601.84
  Q 641.85 601.47 641.88 601.05
  Q 641.94 600.47 641.41 600.70
  L 639.15 601.71
  Q 638.65 601.93 638.12 601.79
  L 633.27 600.42
  A 0.50 0.50 0.0 0 1 633.01 599.62
  L 634.81 597.40
  Q 635.13 597.01 635.20 596.52
  Q 635.30 595.75 635.72 595.17
  Q 638.07 591.93 640.20 588.41
  Q 640.29 588.27 640.42 588.17
  Q 640.53 588.09 640.66 588.14
  Q 641.20 588.33 641.08 587.77
  Q 640.98 587.33 641.32 587.02
  C 641.80 586.59 642.18 585.64 642.35 585.03
  A 1.76 1.71 76.7 0 1 642.83 584.23
  Q 643.42 583.67 643.38 582.79
  Q 643.35 582.29 643.60 581.86
  Q 646.87 576.15 650.50 567.73
  Q 654.76 557.83 657.25 551.10
  Q 658.16 548.62 658.79 546.06
  Q 659.42 543.50 660.05 541.13
  Q 660.47 539.53 660.36 537.75
  Q 660.32 537.13 660.61 536.57
  Q 661.39 535.06 661.18 533.33
  Q 661.11 532.80 661.31 532.30
  Q 662.05 530.52 662.11 529.12
  Q 662.19 527.34 661.68 522.91"
/>
<path stroke="#173445" vector-effect="non-scaling-stroke" d="
  M 781.47 400.61
  Q 783.82 410.09 787.44 419.29
  C 788.52 422.03 788.81 424.74 789.79 427.46
  Q 790.87 430.46 791.58 433.46
  Q 792.07 435.53 792.60 437.66
  Q 793.08 439.59 793.41 441.89
  Q 794.21 447.34 795.56 452.69
  C 796.03 454.59 795.53 456.42 796.46 458.06
  Q 796.71 458.50 796.67 459.01
  C 796.42 461.92 797.68 464.15 797.81 466.91
  Q 797.90 469.01 798.37 471.13
  Q 798.82 473.15 798.93 475.40
  Q 799.10 478.74 799.31 482.00
  Q 799.66 487.58 798.83 493.77
  Q 798.16 498.84 798.81 505.73
  Q 799.39 511.77 799.39 516.92
  Q 799.39 522.52 799.40 527.97
  C 799.41 530.79 799.05 533.60 798.79 536.42
  Q 798.51 539.44 797.79 542.35
  Q 797.03 545.40 796.87 548.80
  Q 796.76 551.03 796.18 553.08
  Q 795.62 555.04 795.57 557.13
  Q 795.47 561.75 793.89 565.67
  C 793.48 566.67 793.60 567.83 793.24 568.88
  A 1.05 1.04 -0.7 0 1 792.59 569.54
  Q 791.93 569.78 791.82 570.53
  Q 791.81 570.67 791.68 570.72
  Q 791.35 570.86 791.28 570.42
  Q 791.24 570.20 791.27 569.98
  L 791.69 567.31
  Q 791.79 566.69 791.19 566.85
  Q 790.53 567.03 790.08 566.59
  Q 789.97 566.49 789.90 566.36
  Q 789.84 566.25 789.93 566.16
  Q 790.38 565.73 789.77 565.84
  Q 788.61 566.04 787.91 565.25
  Q 787.73 565.04 787.75 565.32
  Q 787.77 565.57 787.47 565.63
  Q 787.11 565.70 787.06 565.33
  Q 787.04 565.16 787.10 565.00
  Q 787.34 564.42 786.82 564.77
  Q 786.27 565.14 785.68 564.93
  Q 785.01 564.70 784.23 564.77
  Q 782.72 564.91 781.41 565.43
  Q 781.27 565.49 781.18 565.37
  Q 781.08 565.23 781.10 565.09
  Q 781.21 564.34 780.56 564.74
  Q 779.46 565.42 778.25 564.45
  A 0.77 0.76 -38.9 0 0 777.43 564.37
  L 776.93 564.63
  Q 776.33 564.93 776.21 564.28
  L 775.79 562.17
  Q 775.74 561.87 775.43 561.87
  L 774.98 561.87
  Q 774.73 561.87 774.60 562.09
  Q 774.08 562.99 772.95 562.84
  Q 772.79 562.82 772.70 562.69
  Q 772.60 562.54 772.64 562.40
  Q 772.91 561.42 772.38 562.28
  Q 772.31 562.40 772.27 562.51
  Q 772.11 562.96 771.96 562.51
  Q 771.84 562.14 771.84 562.14
  Q 771.66 562.53 771.68 562.96
  Q 771.72 563.64 771.21 563.20
  Q 770.19 562.31 768.86 562.49
  Q 768.40 562.55 768.22 562.13
  Q 767.47 560.40 765.49 560.01
  C 763.83 559.68 764.11 558.20 762.92 557.55
  Q 762.27 557.18 761.60 557.41
  Q 761.20 557.55 760.85 557.30
  Q 760.10 556.76 759.14 556.70
  Q 759.01 556.69 758.90 556.64
  Q 758.64 556.50 758.70 556.21
  Q 758.81 555.71 758.31 555.60
  Q 757.14 555.37 756.23 554.50
  Q 756.13 554.39 756.07 554.26
  Q 755.90 553.92 756.19 553.69
  A 0.08 0.08 0.0 0 0 756.17 553.55
  Q 754.78 553.05 753.34 552.04
  Q 752.65 551.56 752.89 552.35
  Q 752.98 552.65 752.61 552.77
  Q 752.17 552.91 752.12 552.45
  Q 752.09 552.22 752.15 552.00
  A 0.46 0.45 14.0 0 0 751.80 551.43
  Q 749.61 550.96 748.24 552.13
  Q 748.01 552.32 747.72 552.30
  Q 747.49 552.29 747.32 552.12
  A 0.65 0.64 39.7 0 1 747.24 551.30
  Q 747.41 551.06 747.41 550.75
  Q 747.40 550.23 747.08 549.84
  L 744.72 546.91
  Q 744.33 546.43 743.95 546.91
  Q 743.75 547.17 743.98 547.39
  A 0.41 0.40 41.0 0 1 744.02 547.92
  Q 743.51 548.58 742.83 548.53
  Q 742.49 548.51 742.44 548.84
  Q 742.24 550.15 740.63 550.67
  Q 740.19 550.81 740.26 550.35
  L 740.37 549.68
  A 0.54 0.51 84.0 0 1 740.67 549.29
  Q 741.43 548.94 741.88 548.27
  Q 742.25 547.74 741.73 547.37
  Q 741.32 547.07 741.39 546.82"
/>
<path stroke="#844827" vector-effect="non-scaling-stroke" d="
  M 741.39 546.82
  Q 750.67 544.17 753.79 536.41
  Q 755.32 532.58 755.22 527.00
  Q 754.80 504.97 755.09 487.17
  C 755.26 476.34 747.98 467.97 736.74 467.66
  Q 726.79 467.38 716.66 467.55
  Q 713.42 467.60 711.46 466.20
  C 706.73 462.81 707.88 455.92 706.60 451.05
  Q 705.97 448.66 705.16 446.22"
/>
<path stroke="#f7fbf3" vector-effect="non-scaling-stroke" d="
  M 576.11 802.39
  L 576.10 801.89
  Q 576.09 801.30 575.50 801.27
  Q 573.83 801.19 572.14 801.15
  Q 571.48 801.13 571.01 801.52
  Q 570.74 801.75 570.41 801.59
  Q 568.91 800.86 567.22 801.34
  Q 566.72 801.48 566.26 801.21
  Q 565.74 800.91 565.19 801.02
  Q 561.56 801.76 557.74 802.06
  Q 556.75 802.13 555.76 802.20
  Q 548.13 802.68 540.42 802.16
  Q 531.77 801.58 525.28 801.50
  Q 513.42 801.35 501.51 801.46
  Q 491.63 801.55 482.79 802.19
  Q 477.49 802.56 473.13 802.57
  Q 468.26 802.57 463.46 802.86
  C 461.79 802.96 460.42 802.34 458.74 802.62
  Q 455.79 803.11 452.82 802.83
  C 449.77 802.55 446.92 803.44 443.94 803.32
  Q 440.72 803.18 437.69 803.72
  Q 435.12 804.18 432.44 804.29
  Q 429.67 804.40 427.14 805.14
  Q 426.81 805.23 426.48 805.19
  Q 422.18 804.69 418.97 806.20
  Q 418.48 806.43 417.95 806.28
  Q 417.21 806.08 416.41 806.19
  Q 416.04 806.24 415.98 805.87
  Q 415.95 805.70 415.91 805.53
  Q 415.82 805.17 415.50 805.36
  Q 413.59 806.50 411.71 805.75
  Q 411.37 805.62 411.03 805.74
  Q 408.07 806.79 404.99 806.68
  Q 403.02 806.60 400.92 806.77
  Q 400.71 806.79 400.52 806.88
  Q 400.30 806.97 400.15 807.15
  A 0.93 0.92 -62.4 0 1 399.24 807.44
  Q 398.47 807.25 397.88 807.69
  Q 397.48 807.98 396.99 807.92
  Q 395.19 807.68 393.67 808.58
  Q 392.30 809.38 390.61 809.61
  Q 380.03 811.01 370.48 812.51
  Q 369.45 812.67 368.53 813.06
  Q 367.55 813.49 366.50 813.66
  Q 365.00 813.90 363.53 814.45
  Q 361.37 815.25 359.07 815.66
  Q 357.28 815.97 355.66 816.61
  Q 353.69 817.39 351.81 818.29
  Q 351.42 818.48 350.99 818.45
  Q 349.56 818.34 348.87 819.73
  Q 348.75 819.98 348.54 820.15
  Q 347.53 820.93 346.37 820.95
  Q 345.58 820.96 345.34 821.72
  Q 345.11 822.46 344.35 822.18
  A 0.92 0.92 0.0 0 0 343.18 822.66
  Q 340.93 827.50 340.43 832.02
  A 3.05 3.05 0.0 0 0 342.26 835.15
  C 344.44 836.08 347.02 836.62 349.36 836.66
  C 355.37 836.75 361.16 837.87 367.00 837.93
  Q 372.94 838.00 377.98 838.64
  Q 386.15 839.67 393.75 840.54
  C 395.68 840.76 397.75 840.30 399.87 840.46
  Q 414.94 841.58 429.87 842.37
  C 433.76 842.57 437.69 842.06 441.62 842.29
  C 450.65 842.81 459.81 842.68 468.95 843.15
  Q 480.77 843.77 491.43 843.62
  C 494.20 843.58 496.95 844.12 499.77 843.98
  Q 503.02 843.82 506.23 844.19
  Q 513.78 845.06 521.02 844.58
  Q 527.44 844.15 533.04 844.05
  Q 540.49 843.91 548.02 843.76
  C 554.67 843.63 561.33 844.04 568.00 843.83
  C 581.91 843.41 595.22 842.56 610.55 841.93
  Q 627.60 841.23 645.50 839.35
  Q 654.98 838.35 664.49 837.43
  C 669.05 836.99 673.39 836.17 677.96 835.71
  Q 683.43 835.16 690.44 833.99
  C 691.51 833.81 692.02 833.18 692.99 832.87
  A 0.87 0.87 0.0 0 0 693.19 831.30
  L 692.92 831.13
  A 0.56 0.52 10.6 0 1 692.68 830.80
  Q 692.38 829.56 692.01 828.24
  Q 691.71 827.16 690.90 826.48
  C 689.37 825.21 688.45 823.74 686.29 823.51
  Q 685.86 823.46 685.86 823.02
  Q 685.86 822.34 685.13 822.22
  Q 684.64 822.14 684.30 821.80
  Q 681.98 819.54 679.05 818.53
  Q 678.21 818.25 677.45 817.80
  C 676.47 817.23 676.29 815.98 675.05 815.60
  Q 673.71 815.18 672.52 814.29
  Q 672.18 814.04 672.02 814.42
  Q 671.70 815.17 670.92 814.88
  Q 669.31 814.30 667.93 813.20
  C 666.61 812.14 663.41 811.44 661.75 811.24
  Q 656.46 810.60 651.38 810.01
  Q 649.56 809.79 648.23 810.13
  Q 646.50 810.56 644.61 809.99
  Q 644.24 809.88 643.96 809.60
  Q 643.28 808.91 642.36 809.21
  A 1.41 1.35 -42.7 0 1 641.42 809.19
  Q 640.37 808.78 639.23 808.64
  Q 638.05 808.51 637.01 808.29
  Q 634.02 807.68 630.82 806.80
  Q 629.80 806.52 628.63 806.54
  Q 627.51 806.55 626.40 806.53
  Q 624.72 806.51 623.13 806.68
  Q 618.92 807.13 614.14 806.29
  Q 613.22 806.13 612.44 805.61
  Q 611.67 805.11 610.93 804.61
  Q 610.53 804.36 610.04 804.37
  Q 609.75 804.37 609.46 804.46
  Q 608.99 804.61 608.55 804.36
  Q 607.10 803.55 605.42 803.50
  Q 592.66 803.17 580.29 801.50
  Q 579.43 801.38 579.86 802.13
  Q 579.94 802.27 579.82 802.38
  Q 579.41 802.75 578.88 802.61
  Q 577.52 802.25 576.13 802.40
  A 0.02 0.01 0.0 0 1 576.11 802.39"
/>
</g>
<path fill="#fffff2" d="
  M 0.00 0.00
  L 1024.00 0.00
  L 1024.00 1024.00
  L 0.00 1024.00
  L 0.00 0.00
  Z
  M 269.24 346.52
  C 252.40 371.49 239.53 399.02 231.62 427.99
  Q 228.50 439.39 227.63 443.66
  Q 219.55 483.07 221.94 526.59
  C 222.94 544.78 226.02 562.97 231.27 580.54
  C 236.38 597.66 242.38 613.70 250.59 630.22
  Q 263.35 656.20 277.32 673.93
  Q 289.12 688.91 298.22 699.03
  Q 312.55 714.97 331.95 730.31
  Q 333.95 731.89 337.10 733.99
  C 341.53 736.95 346.21 740.65 350.01 743.13
  C 392.74 771.00 441.41 788.01 492.18 791.96
  Q 525.81 794.58 564.87 787.04
  Q 641.37 772.26 699.53 724.07
  C 725.28 702.74 747.36 675.81 764.44 646.97
  C 768.20 640.63 771.39 633.83 774.57 627.10
  Q 795.94 581.94 800.78 532.33
  C 801.83 521.58 801.72 511.32 801.64 499.88
  Q 801.31 447.85 781.47 400.61
  Q 778.91 393.74 774.92 387.44
  A 0.88 0.87 -48.6 0 0 773.39 387.54
  Q 766.99 401.27 754.87 413.31
  Q 742.18 425.91 726.03 431.81
  Q 722.67 433.04 719.07 434.15
  Q 716.83 434.84 714.60 435.14
  Q 711.62 435.55 710.16 436.16
  Q 705.16 438.21 705.16 446.22
  Q 684.60 467.27 663.98 487.49
  Q 661.81 489.61 661.91 490.99
  Q 663.01 507.04 661.68 522.91
  Q 660.92 528.25 659.99 533.49
  Q 656.49 553.29 647.70 571.21
  Q 629.06 609.22 593.29 631.91
  Q 584.79 637.31 575.59 641.34
  C 548.58 653.17 518.57 658.00 489.45 653.78
  Q 485.71 653.24 477.23 651.53
  C 454.02 646.84 432.36 635.91 414.20 620.61
  Q 405.16 612.42 402.40 609.60
  C 390.09 597.00 379.84 582.20 373.04 565.93
  C 368.90 556.03 365.43 546.65 363.66 535.89
  C 359.06 508.09 361.06 478.51 372.17 452.68
  Q 376.64 442.26 382.53 432.43
  Q 398.16 407.18 421.94 389.55
  C 426.06 386.50 430.69 383.79 435.10 381.00
  Q 440.04 377.88 444.79 375.64
  Q 488.92 354.86 537.57 363.45
  Q 561.79 367.73 583.02 380.74
  Q 584.45 381.62 585.87 381.15
  Q 607.94 359.51 629.62 337.44
  C 630.95 336.09 632.87 335.45 633.20 333.38
  C 636.51 312.82 649.77 296.92 670.00 291.57
  Q 679.23 289.13 687.34 290.08
  C 710.70 292.81 728.60 309.33 731.15 333.08
  Q 732.57 346.36 726.89 357.81
  Q 712.22 387.38 679.22 385.92
  Q 663.95 385.24 651.96 375.41
  C 648.87 372.87 646.49 369.68 643.62 366.78
  Q 641.67 364.82 639.03 364.84
  Q 637.03 364.86 634.89 367.01
  Q 620.06 381.96 606.52 395.53
  C 583.60 418.51 560.69 441.45 533.47 468.34
  C 520.65 481.02 507.30 494.39 495.58 506.58
  Q 490.92 511.43 484.95 510.82
  C 482.31 510.55 480.49 509.21 478.68 507.39
  Q 469.02 497.73 459.42 488.01
  Q 450.74 479.21 439.48 478.08
  Q 421.33 476.27 407.93 487.44
  C 396.52 496.97 391.78 510.64 393.37 525.53
  Q 394.92 540.05 404.88 550.30
  Q 429.19 575.29 455.09 600.82
  Q 462.42 608.05 466.90 610.35
  Q 476.13 615.10 486.57 614.16
  Q 499.29 613.01 507.84 604.59
  Q 539.84 573.04 569.96 542.71
  Q 583.94 528.64 600.46 512.23
  Q 645.28 467.72 696.28 416.75
  Q 697.94 415.09 700.34 414.27
  Q 703.64 413.14 706.92 412.21
  Q 731.36 405.32 746.52 384.88
  C 758.99 367.31 763.80 345.34 760.00 324.26
  C 755.73 300.65 741.39 281.16 720.36 269.27
  Q 714.59 265.86 709.82 264.14
  Q 689.35 256.73 666.81 261.20
  C 663.44 261.86 660.11 263.24 656.75 264.14
  C 647.82 266.53 638.86 272.76 632.05 278.97
  Q 629.80 281.02 630.30 278.02
  L 634.88 250.69
  A 1.51 1.51 0.0 0 0 634.23 249.19
  Q 629.30 245.85 623.80 243.48
  Q 594.39 230.78 569.13 225.57
  C 544.92 220.58 519.48 218.09 495.01 219.75
  Q 488.89 220.16 482.91 221.06
  C 473.29 222.51 463.76 223.43 454.25 225.49
  Q 438.84 228.84 421.76 234.52
  Q 398.65 242.21 380.54 250.99
  Q 354.02 263.85 329.00 282.71
  Q 311.35 296.02 294.14 315.39
  Q 280.30 330.96 269.24 346.52
  Z
  M 576.11 802.39
  L 576.10 801.89
  Q 576.09 801.30 575.50 801.27
  Q 573.83 801.19 572.14 801.15
  Q 571.48 801.13 571.01 801.52
  Q 570.74 801.75 570.41 801.59
  Q 568.91 800.86 567.22 801.34
  Q 566.72 801.48 566.26 801.21
  Q 565.74 800.91 565.19 801.02
  Q 561.56 801.76 557.74 802.06
  Q 556.75 802.13 555.76 802.20
  Q 548.13 802.68 540.42 802.16
  Q 531.77 801.58 525.28 801.50
  Q 513.42 801.35 501.51 801.46
  Q 491.63 801.55 482.79 802.19
  Q 477.49 802.56 473.13 802.57
  Q 468.26 802.57 463.46 802.86
  C 461.79 802.96 460.42 802.34 458.74 802.62
  Q 455.79 803.11 452.82 802.83
  C 449.77 802.55 446.92 803.44 443.94 803.32
  Q 440.72 803.18 437.69 803.72
  Q 435.12 804.18 432.44 804.29
  Q 429.67 804.40 427.14 805.14
  Q 426.81 805.23 426.48 805.19
  Q 422.18 804.69 418.97 806.20
  Q 418.48 806.43 417.95 806.28
  Q 417.21 806.08 416.41 806.19
  Q 416.04 806.24 415.98 805.87
  Q 415.95 805.70 415.91 805.53
  Q 415.82 805.17 415.50 805.36
  Q 413.59 806.50 411.71 805.75
  Q 411.37 805.62 411.03 805.74
  Q 408.07 806.79 404.99 806.68
  Q 403.02 806.60 400.92 806.77
  Q 400.71 806.79 400.52 806.88
  Q 400.30 806.97 400.15 807.15
  A 0.93 0.92 -62.4 0 1 399.24 807.44
  Q 398.47 807.25 397.88 807.69
  Q 397.48 807.98 396.99 807.92
  Q 395.19 807.68 393.67 808.58
  Q 392.30 809.38 390.61 809.61
  Q 380.03 811.01 370.48 812.51
  Q 369.45 812.67 368.53 813.06
  Q 367.55 813.49 366.50 813.66
  Q 365.00 813.90 363.53 814.45
  Q 361.37 815.25 359.07 815.66
  Q 357.28 815.97 355.66 816.61
  Q 353.69 817.39 351.81 818.29
  Q 351.42 818.48 350.99 818.45
  Q 349.56 818.34 348.87 819.73
  Q 348.75 819.98 348.54 820.15
  Q 347.53 820.93 346.37 820.95
  Q 345.58 820.96 345.34 821.72
  Q 345.11 822.46 344.35 822.18
  A 0.92 0.92 0.0 0 0 343.18 822.66
  Q 340.93 827.50 340.43 832.02
  A 3.05 3.05 0.0 0 0 342.26 835.15
  C 344.44 836.08 347.02 836.62 349.36 836.66
  C 355.37 836.75 361.16 837.87 367.00 837.93
  Q 372.94 838.00 377.98 838.64
  Q 386.15 839.67 393.75 840.54
  C 395.68 840.76 397.75 840.30 399.87 840.46
  Q 414.94 841.58 429.87 842.37
  C 433.76 842.57 437.69 842.06 441.62 842.29
  C 450.65 842.81 459.81 842.68 468.95 843.15
  Q 480.77 843.77 491.43 843.62
  C 494.20 843.58 496.95 844.12 499.77 843.98
  Q 503.02 843.82 506.23 844.19
  Q 513.78 845.06 521.02 844.58
  Q 527.44 844.15 533.04 844.05
  Q 540.49 843.91 548.02 843.76
  C 554.67 843.63 561.33 844.04 568.00 843.83
  C 581.91 843.41 595.22 842.56 610.55 841.93
  Q 627.60 841.23 645.50 839.35
  Q 654.98 838.35 664.49 837.43
  C 669.05 836.99 673.39 836.17 677.96 835.71
  Q 683.43 835.16 690.44 833.99
  C 691.51 833.81 692.02 833.18 692.99 832.87
  A 0.87 0.87 0.0 0 0 693.19 831.30
  L 692.92 831.13
  A 0.56 0.52 10.6 0 1 692.68 830.80
  Q 692.38 829.56 692.01 828.24
  Q 691.71 827.16 690.90 826.48
  C 689.37 825.21 688.45 823.74 686.29 823.51
  Q 685.86 823.46 685.86 823.02
  Q 685.86 822.34 685.13 822.22
  Q 684.64 822.14 684.30 821.80
  Q 681.98 819.54 679.05 818.53
  Q 678.21 818.25 677.45 817.80
  C 676.47 817.23 676.29 815.98 675.05 815.60
  Q 673.71 815.18 672.52 814.29
  Q 672.18 814.04 672.02 814.42
  Q 671.70 815.17 670.92 814.88
  Q 669.31 814.30 667.93 813.20
  C 666.61 812.14 663.41 811.44 661.75 811.24
  Q 656.46 810.60 651.38 810.01
  Q 649.56 809.79 648.23 810.13
  Q 646.50 810.56 644.61 809.99
  Q 644.24 809.88 643.96 809.60
  Q 643.28 808.91 642.36 809.21
  A 1.41 1.35 -42.7 0 1 641.42 809.19
  Q 640.37 808.78 639.23 808.64
  Q 638.05 808.51 637.01 808.29
  Q 634.02 807.68 630.82 806.80
  Q 629.80 806.52 628.63 806.54
  Q 627.51 806.55 626.40 806.53
  Q 624.72 806.51 623.13 806.68
  Q 618.92 807.13 614.14 806.29
  Q 613.22 806.13 612.44 805.61
  Q 611.67 805.11 610.93 804.61
  Q 610.53 804.36 610.04 804.37
  Q 609.75 804.37 609.46 804.46
  Q 608.99 804.61 608.55 804.36
  Q 607.10 803.55 605.42 803.50
  Q 592.66 803.17 580.29 801.50
  Q 579.43 801.38 579.86 802.13
  Q 579.94 802.27 579.82 802.38
  Q 579.41 802.75 578.88 802.61
  Q 577.52 802.25 576.13 802.40
  A 0.02 0.01 0.0 0 1 576.11 802.39
  Z"
/>
<path fill="#1f4764" d="
  M 720.36 269.27
  Q 722.13 271.53 724.72 273.28
  Q 728.18 275.62 729.46 276.68
  Q 731.99 278.79 734.57 280.65
  C 736.09 281.74 737.01 283.50 738.41 284.88
  Q 752.02 298.24 756.76 317.01
  Q 757.89 321.49 758.67 326.37
  Q 759.40 330.96 759.53 335.64
  Q 759.66 340.54 759.59 345.18
  Q 759.53 348.88 758.28 352.73
  C 757.74 354.41 757.74 356.21 757.14 357.95
  C 755.70 359.15 755.94 360.78 755.48 362.01
  Q 754.55 364.45 753.89 367.18
  A 0.84 0.84 0.0 0 1 752.42 367.51
  Q 751.91 366.88 751.48 366.15
  Q 751.20 365.67 751.17 366.22
  Q 751.16 366.37 751.05 366.49
  Q 750.64 366.94 750.48 366.35
  Q 750.20 365.24 749.57 364.36
  Q 749.29 363.96 748.84 363.77
  Q 745.54 362.38 743.10 359.86
  Q 743.07 359.83 743.06 359.87
  Q 743.01 360.01 742.90 360.07
  Q 742.49 360.26 742.20 359.92
  Q 741.60 359.23 740.62 358.75
  Q 740.02 358.45 739.42 358.58
  Q 738.43 358.78 737.61 357.87
  Q 737.42 357.65 737.15 357.75
  Q 736.20 358.09 735.84 357.09
  Q 735.64 356.55 735.11 356.76
  Q 734.45 357.03 733.69 357.16
  Q 732.92 357.30 732.53 356.71
  Q 732.28 356.31 732.50 355.90
  Q 732.83 355.31 732.52 354.69
  Q 732.39 354.45 732.15 354.31
  Q 730.99 353.63 731.46 352.29
  Q 731.52 352.11 731.71 352.15
  Q 731.87 352.18 731.97 352.07
  Q 732.11 351.92 732.10 351.71
  Q 732.07 349.76 732.42 347.91
  Q 733.80 340.70 732.93 328.52
  Q 732.92 328.37 732.77 328.37
  Q 732.72 328.37 732.67 328.35
  Q 732.44 328.26 732.42 328.01
  Q 732.31 326.24 731.74 324.52
  Q 728.89 315.90 723.45 308.50
  Q 722.70 307.49 721.77 306.51
  C 720.27 304.94 719.18 303.20 717.54 301.73
  Q 713.75 298.32 709.74 295.20
  Q 709.03 294.65 708.11 294.36
  Q 707.24 294.09 706.39 293.82
  Q 705.15 293.42 704.02 292.65
  Q 702.66 291.72 701.07 291.64
  Q 700.60 291.61 700.21 291.36
  C 696.05 288.64 692.73 289.04 688.29 288.81
  C 686.42 288.71 684.29 287.54 682.25 287.92
  Q 676.92 288.91 671.54 289.61
  Q 669.15 289.92 667.08 290.72
  Q 664.92 291.55 662.77 292.42
  Q 660.19 293.47 657.20 295.28
  Q 654.44 296.95 651.80 298.43
  Q 648.82 300.09 645.54 303.82
  Q 642.59 307.16 640.36 310.64
  Q 636.94 315.98 634.24 323.15
  Q 632.88 326.76 631.90 333.59
  Q 631.84 334.04 631.51 334.36
  Q 620.20 345.42 608.38 357.21
  Q 606.95 358.64 604.65 360.55
  Q 602.67 362.18 600.95 363.85
  Q 597.37 367.31 593.83 370.78
  Q 592.52 372.06 591.38 373.54
  Q 590.24 375.02 588.96 376.28
  A 0.60 0.60 0.0 0 1 587.94 375.95
  Q 587.74 374.72 587.88 373.39
  Q 588.31 369.25 588.02 365.02
  Q 588.00 364.84 587.87 364.73
  Q 587.60 364.52 587.61 364.18
  L 587.92 356.94
  Q 589.16 340.91 590.34 330.01
  Q 590.53 328.32 589.94 326.98
  Q 589.76 326.56 589.33 326.40
  Q 577.88 322.17 566.04 319.31
  C 561.20 318.14 555.64 316.06 553.79 310.91
  Q 553.22 309.31 553.29 305.55
  Q 553.38 300.00 553.40 294.53
  Q 553.42 284.49 553.28 283.51
  C 552.01 274.50 543.94 266.76 534.36 266.79
  Q 513.43 266.86 489.72 266.91
  C 483.86 266.92 479.47 268.34 475.41 272.58
  Q 470.21 278.01 469.95 284.46
  Q 469.56 294.28 469.79 307.20
  C 469.89 312.97 466.49 316.33 460.90 317.68
  C 455.08 319.08 449.29 320.44 443.67 322.21
  Q 426.82 327.50 409.80 336.50
  C 404.67 339.21 398.57 341.85 393.83 336.57
  Q 388.69 330.85 383.77 325.36
  Q 379.77 320.91 376.13 318.85
  C 371.64 316.32 362.93 315.85 358.10 319.35
  Q 355.08 321.55 351.86 324.59
  Q 341.42 334.48 330.97 344.31
  Q 329.15 344.80 328.27 346.34
  Q 327.98 346.86 327.41 347.02
  Q 325.30 347.65 324.73 349.57
  Q 324.59 350.06 324.07 350.12
  Q 322.77 350.26 321.92 351.57
  Q 321.69 351.94 321.40 351.65
  Q 321.36 351.61 321.31 351.61
  Q 320.23 351.64 321.07 350.96
  Q 321.50 350.61 321.89 350.22
  Q 322.49 349.61 321.65 349.52
  Q 320.07 349.34 319.03 350.67
  Q 318.69 351.10 318.15 351.03
  Q 317.13 350.91 316.43 351.74
  Q 316.11 352.13 315.61 352.17
  Q 314.11 352.30 313.02 351.46
  Q 312.71 351.22 312.33 351.28
  Q 308.45 351.80 304.88 352.15
  Q 303.51 352.28 302.13 352.89
  Q 301.66 353.10 301.14 353.11
  L 298.00 353.15
  A 0.67 0.67 0.0 0 0 297.34 353.82
  Q 297.35 355.09 296.26 355.13
  Q 293.99 355.21 291.79 355.59
  Q 291.30 355.67 290.92 355.35
  Q 289.23 353.92 287.68 355.48
  Q 287.26 355.91 286.92 355.41
  Q 286.80 355.24 286.79 355.03
  Q 286.74 354.55 286.28 354.71
  Q 286.15 354.76 286.01 354.78
  Q 285.37 354.86 285.37 355.50
  L 285.37 356.14
  Q 285.37 356.59 284.95 356.75
  Q 282.93 357.53 280.87 357.54
  Q 280.36 357.55 280.06 357.96
  Q 279.83 358.27 279.86 358.65
  Q 279.89 359.10 279.44 359.08
  Q 278.57 359.04 277.97 358.33
  Q 277.58 357.87 277.22 358.37
  Q 277.07 358.59 276.85 358.75
  Q 274.66 360.37 272.79 359.30
  Q 272.21 358.96 272.33 359.62
  Q 272.37 359.80 272.36 360.00
  Q 272.35 360.27 272.48 360.03
  Q 272.50 359.98 272.56 359.97
  Q 272.80 359.96 272.87 360.21
  Q 273.02 360.78 272.59 361.09
  Q 272.48 361.17 272.36 361.12
  Q 272.17 361.03 272.10 360.84
  Q 271.92 360.38 271.82 360.86
  Q 271.61 361.81 270.65 362.05
  Q 270.22 362.17 270.58 362.42
  Q 270.75 362.54 270.52 362.70
  Q 270.14 362.96 269.82 362.65
  Q 269.43 362.27 268.94 362.16
  Q 268.51 362.05 268.06 362.29
  Q 266.43 363.17 265.20 361.63
  Q 264.92 361.29 265.10 360.88
  Q 265.27 360.50 264.98 360.19
  Q 264.88 360.07 264.73 360.12
  Q 264.51 360.20 264.30 360.13
  Q 263.77 359.95 263.97 359.43
  Q 265.67 355.05 267.83 350.90
  Q 268.22 350.15 269.16 349.04
  Q 270.84 347.06 269.24 346.52
  Q 280.30 330.96 294.14 315.39
  Q 311.35 296.02 329.00 282.71
  Q 354.02 263.85 380.54 250.99
  Q 398.65 242.21 421.76 234.52
  Q 438.84 228.84 454.25 225.49
  C 463.76 223.43 473.29 222.51 482.91 221.06
  Q 488.89 220.16 495.01 219.75
  C 519.48 218.09 544.92 220.58 569.13 225.57
  Q 594.39 230.78 623.80 243.48
  Q 629.30 245.85 634.23 249.19
  A 1.51 1.51 0.0 0 1 634.88 250.69
  L 630.30 278.02
  Q 629.80 281.02 632.05 278.97
  C 638.86 272.76 647.82 266.53 656.75 264.14
  C 660.11 263.24 663.44 261.86 666.81 261.20
  Q 689.35 256.73 709.82 264.14
  Q 714.59 265.86 720.36 269.27
  Z"
/>
<path fill="#fd6500" d="
  M 587.92 356.94
  Q 586.61 367.33 586.73 377.76
  Q 586.75 379.08 585.39 380.43
  Q 585.07 380.75 585.47 380.96
  Q 585.64 381.05 585.87 381.15
  Q 584.45 381.62 583.02 380.74
  Q 561.79 367.73 537.57 363.45
  Q 488.92 354.86 444.79 375.64
  Q 440.04 377.88 435.10 381.00
  C 430.69 383.79 426.06 386.50 421.94 389.55
  Q 398.16 407.18 382.53 432.43
  Q 378.51 435.46 375.86 440.56
  Q 375.61 441.03 375.55 441.58
  A 0.17 0.17 0.0 0 1 375.29 441.70
  Q 375.14 441.60 375.13 441.42
  Q 375.07 440.79 375.08 441.43
  Q 375.09 441.75 375.22 442.04
  Q 375.47 442.61 374.89 442.86
  Q 374.32 443.12 374.44 443.72
  Q 374.55 444.25 374.14 444.61
  Q 373.55 445.13 373.53 445.91
  Q 373.52 446.28 373.21 446.47
  Q 372.48 446.93 372.46 447.80
  A 1.49 1.48 69.3 0 1 371.98 448.87
  Q 371.49 449.32 371.49 449.98
  Q 371.49 450.31 371.20 450.46
  Q 371.03 450.54 370.91 450.67
  Q 370.63 450.97 370.59 451.39
  Q 370.53 452.07 369.94 452.39
  Q 369.53 452.60 369.49 453.05
  Q 369.41 453.78 368.68 454.17
  Q 368.21 454.42 367.77 454.13
  Q 367.05 453.67 366.35 454.22
  Q 365.97 454.52 365.82 454.06
  Q 365.75 453.83 365.44 453.98
  Q 365.03 454.16 364.86 454.58
  Q 364.77 454.80 364.55 454.93
  Q 364.14 455.15 363.67 455.09
  Q 360.99 454.68 358.82 457.05
  Q 358.51 457.39 358.09 457.19
  L 357.12 456.74
  A 0.84 0.81 46.3 0 0 356.48 456.71
  Q 355.69 456.99 355.46 457.82
  Q 355.34 458.23 355.01 458.51
  Q 354.32 459.09 354.01 459.91
  Q 353.78 460.50 353.22 460.21
  Q 350.81 458.98 349.70 461.34
  A 0.84 0.83 -79.3 0 1 348.99 461.83
  Q 348.45 461.85 348.06 462.19
  Q 347.66 462.52 347.15 462.41
  Q 346.07 462.19 344.62 462.40
  Q 344.15 462.47 344.16 462.92
  Q 344.16 463.52 343.58 463.62
  Q 343.27 463.68 342.98 463.58
  Q 342.48 463.42 341.99 463.62
  Q 336.93 465.72 331.37 466.14
  Q 331.25 466.15 331.13 466.20
  Q 331.00 466.25 330.91 466.37
  Q 330.70 466.64 330.36 466.56
  Q 328.67 466.17 327.10 467.42
  Q 326.77 467.68 326.36 467.62
  Q 325.69 467.51 325.13 467.91
  Q 324.38 468.46 323.46 468.73
  Q 321.24 469.38 318.87 470.41
  Q 318.35 470.63 317.79 470.57
  Q 317.11 470.50 316.79 471.07
  A 1.01 1.01 0.0 0 1 316.02 471.59
  Q 315.26 471.68 314.50 471.69
  Q 314.12 471.69 314.35 471.99
  Q 314.46 472.15 314.16 472.29
  Q 313.79 472.46 313.40 472.34
  Q 311.87 471.87 310.59 473.19
  Q 309.55 474.26 308.62 475.28
  Q 308.30 475.64 307.82 475.70
  Q 306.80 475.83 306.30 476.79
  Q 306.06 477.23 305.63 477.49
  L 302.80 479.17
  Q 302.38 479.42 301.88 479.40
  L 299.29 479.31
  Q 298.81 479.29 298.38 479.07
  Q 296.04 477.85 293.35 477.34
  Q 292.16 477.11 290.99 477.30
  Q 289.78 477.49 288.55 477.14
  C 287.28 476.78 286.32 477.02 285.11 476.80
  Q 283.93 476.59 282.84 477.01
  Q 280.23 478.00 278.12 479.42
  A 0.36 0.36 0.0 0 0 278.23 480.07
  Q 278.95 480.25 279.57 480.05
  Q 279.63 480.03 279.64 480.10
  Q 279.65 480.19 279.63 480.10
  Q 279.62 480.03 279.56 480.06
  Q 278.45 480.54 277.28 480.54
  Q 276.58 480.54 276.28 481.17
  Q 275.42 482.96 274.89 484.81
  Q 274.55 485.98 273.58 486.73
  Q 273.20 487.03 272.97 486.60
  Q 272.62 485.97 271.92 486.11
  Q 271.43 486.21 271.31 486.70
  Q 270.78 488.77 270.90 490.61
  C 270.95 491.48 270.63 492.22 270.51 493.06
  Q 270.17 495.26 270.24 493.04
  Q 270.31 490.85 270.56 488.17
  Q 270.57 488.05 270.65 487.97
  Q 270.75 487.87 270.86 487.77
  Q 270.91 487.73 270.91 487.66
  L 271.13 483.75
  A 0.06 0.06 0.0 0 0 271.02 483.74
  Q 270.83 485.20 270.42 486.72
  Q 269.87 488.72 269.87 490.96
  Q 269.86 492.71 269.86 494.33
  Q 269.86 496.04 269.23 497.42
  Q 268.17 499.76 268.58 502.32
  Q 268.62 502.56 268.43 502.70
  L 268.22 502.86
  A 0.87 0.87 0.0 0 0 267.89 503.54
  L 267.87 510.22
  Q 267.86 499.95 267.88 489.69
  Q 267.88 483.26 268.86 480.49
  C 271.26 473.68 277.98 467.69 284.93 467.57
  Q 294.99 467.40 307.27 467.60
  C 312.52 467.68 315.12 462.52 316.01 458.13
  Q 321.48 431.06 334.97 407.38
  C 337.53 402.89 337.67 398.56 333.55 394.76
  Q 326.42 388.19 320.16 381.52
  C 314.60 375.59 312.52 367.98 316.79 360.46
  C 320.41 354.09 325.89 349.62 330.97 344.31
  Q 341.42 334.48 351.86 324.59
  Q 355.08 321.55 358.10 319.35
  C 362.93 315.85 371.64 316.32 376.13 318.85
  Q 379.77 320.91 383.77 325.36
  Q 388.69 330.85 393.83 336.57
  C 398.57 341.85 404.67 339.21 409.80 336.50
  Q 426.82 327.50 443.67 322.21
  C 449.29 320.44 455.08 319.08 460.90 317.68
  C 466.49 316.33 469.89 312.97 469.79 307.20
  Q 469.56 294.28 469.95 284.46
  Q 470.21 278.01 475.41 272.58
  C 479.47 268.34 483.86 266.92 489.72 266.91
  Q 513.43 266.86 534.36 266.79
  C 543.94 266.76 552.01 274.50 553.28 283.51
  Q 553.42 284.49 553.40 294.53
  Q 553.38 300.00 553.29 305.55
  Q 553.22 309.31 553.79 310.91
  C 555.64 316.06 561.20 318.14 566.04 319.31
  Q 577.88 322.17 589.33 326.40
  Q 589.76 326.56 589.94 326.98
  Q 590.53 328.32 590.34 330.01
  Q 589.16 340.91 587.92 356.94
  Z"
/>
<path fill="#14303e" d="
  M 720.36 269.27
  C 741.39 281.16 755.73 300.65 760.00 324.26
  C 763.80 345.34 758.99 367.31 746.52 384.88
  Q 745.55 383.72 746.74 382.67
  Q 747.19 382.28 747.35 381.72
  C 747.82 380.17 748.89 379.32 749.56 377.97
  Q 752.00 373.04 754.18 368.06
  C 755.60 364.83 756.07 361.39 757.14 357.95
  C 757.74 356.21 757.74 354.41 758.28 352.73
  Q 759.53 348.88 759.59 345.18
  Q 759.66 340.54 759.53 335.64
  Q 759.40 330.96 758.67 326.37
  Q 757.89 321.49 756.76 317.01
  Q 752.02 298.24 738.41 284.88
  C 737.01 283.50 736.09 281.74 734.57 280.65
  Q 731.99 278.79 729.46 276.68
  Q 728.18 275.62 724.72 273.28
  Q 722.13 271.53 720.36 269.27
  Z"
/>
<path fill="#19384c" d="
  M 757.14 357.95
  C 756.07 361.39 755.60 364.83 754.18 368.06
  Q 752.00 373.04 749.56 377.97
  C 748.89 379.32 747.82 380.17 747.35 381.72
  Q 747.19 382.28 746.74 382.67
  Q 745.55 383.72 746.52 384.88
  Q 731.36 405.32 706.92 412.21
  Q 703.64 413.14 700.34 414.27
  Q 697.94 415.09 696.28 416.75
  Q 645.28 467.72 600.46 512.23
  Q 583.94 528.64 569.96 542.71
  Q 539.84 573.04 507.84 604.59
  Q 499.29 613.01 486.57 614.16
  Q 476.13 615.10 466.90 610.35
  Q 462.42 608.05 455.09 600.82
  Q 429.19 575.29 404.88 550.30
  Q 394.92 540.05 393.37 525.53
  C 391.78 510.64 396.52 496.97 407.93 487.44
  Q 421.33 476.27 439.48 478.08
  Q 450.74 479.21 459.42 488.01
  Q 469.02 497.73 478.68 507.39
  C 480.49 509.21 482.31 510.55 484.95 510.82
  Q 490.92 511.43 495.58 506.58
  C 507.30 494.39 520.65 481.02 533.47 468.34
  C 560.69 441.45 583.60 418.51 606.52 395.53
  Q 620.06 381.96 634.89 367.01
  Q 637.03 364.86 639.03 364.84
  Q 641.67 364.82 643.62 366.78
  C 646.49 369.68 648.87 372.87 651.96 375.41
  Q 663.95 385.24 679.22 385.92
  Q 712.22 387.38 726.89 357.81
  Q 732.57 346.36 731.15 333.08
  C 728.60 309.33 710.70 292.81 687.34 290.08
  Q 679.23 289.13 670.00 291.57
  C 649.77 296.92 636.51 312.82 633.20 333.38
  C 632.87 335.45 630.95 336.09 629.62 337.44
  Q 607.94 359.51 585.87 381.15
  Q 585.64 381.05 585.47 380.96
  Q 585.07 380.75 585.39 380.43
  Q 586.75 379.08 586.73 377.76
  Q 586.61 367.33 587.92 356.94
  L 587.61 364.18
  Q 587.60 364.52 587.87 364.73
  Q 588.00 364.84 588.02 365.02
  Q 588.31 369.25 587.88 373.39
  Q 587.74 374.72 587.94 375.95
  A 0.60 0.60 0.0 0 0 588.96 376.28
  Q 590.24 375.02 591.38 373.54
  Q 592.52 372.06 593.83 370.78
  Q 597.37 367.31 600.95 363.85
  Q 602.67 362.18 604.65 360.55
  Q 606.95 358.64 608.38 357.21
  Q 620.20 345.42 631.51 334.36
  Q 631.84 334.04 631.90 333.59
  Q 632.88 326.76 634.24 323.15
  Q 636.94 315.98 640.36 310.64
  Q 642.59 307.16 645.54 303.82
  Q 648.82 300.09 651.80 298.43
  Q 654.44 296.95 657.20 295.28
  Q 660.19 293.47 662.77 292.42
  Q 664.92 291.55 667.08 290.72
  Q 669.15 289.92 671.54 289.61
  Q 676.92 288.91 682.25 287.92
  C 684.29 287.54 686.42 288.71 688.29 288.81
  C 692.73 289.04 696.05 288.64 700.21 291.36
  Q 700.60 291.61 701.07 291.64
  Q 702.66 291.72 704.02 292.65
  Q 705.15 293.42 706.39 293.82
  Q 707.24 294.09 708.11 294.36
  Q 709.03 294.65 709.74 295.20
  Q 713.75 298.32 717.54 301.73
  C 719.18 303.20 720.27 304.94 721.77 306.51
  Q 722.70 307.49 723.45 308.50
  Q 728.89 315.90 731.74 324.52
  Q 732.31 326.24 732.42 328.01
  Q 732.44 328.26 732.67 328.35
  Q 732.72 328.37 732.77 328.37
  Q 732.92 328.37 732.93 328.52
  Q 733.80 340.70 732.42 347.91
  Q 732.07 349.76 732.10 351.71
  Q 732.11 351.92 731.97 352.07
  Q 731.87 352.18 731.71 352.15
  Q 731.52 352.11 731.46 352.29
  Q 730.99 353.63 732.15 354.31
  Q 732.39 354.45 732.52 354.69
  Q 732.83 355.31 732.50 355.90
  Q 732.28 356.31 732.53 356.71
  Q 732.92 357.30 733.69 357.16
  Q 734.45 357.03 735.11 356.76
  Q 735.64 356.55 735.84 357.09
  Q 736.20 358.09 737.15 357.75
  Q 737.42 357.65 737.61 357.87
  Q 738.43 358.78 739.42 358.58
  Q 740.02 358.45 740.62 358.75
  Q 741.60 359.23 742.20 359.92
  Q 742.49 360.26 742.90 360.07
  Q 743.01 360.01 743.06 359.87
  Q 743.07 359.83 743.10 359.86
  Q 745.54 362.38 748.84 363.77
  Q 749.29 363.96 749.57 364.36
  Q 750.20 365.24 750.48 366.35
  Q 750.64 366.94 751.05 366.49
  Q 751.16 366.37 751.17 366.22
  Q 751.20 365.67 751.48 366.15
  Q 751.91 366.88 752.42 367.51
  A 0.84 0.84 0.0 0 0 753.89 367.18
  Q 754.55 364.45 755.48 362.01
  C 755.94 360.78 755.70 359.15 757.14 357.95
  Z"
/>
<path fill="#19384c" d="
  M 330.97 344.31
  C 325.89 349.62 320.41 354.09 316.79 360.46
  C 312.52 367.98 314.60 375.59 320.16 381.52
  Q 326.42 388.19 333.55 394.76
  C 337.67 398.56 337.53 402.89 334.97 407.38
  Q 321.48 431.06 316.01 458.13
  C 315.12 462.52 312.52 467.68 307.27 467.60
  Q 294.99 467.40 284.93 467.57
  C 277.98 467.69 271.26 473.68 268.86 480.49
  Q 267.88 483.26 267.88 489.69
  Q 267.86 499.95 267.87 510.22
  Q 267.86 516.99 267.89 523.78
  Q 267.94 533.55 269.29 536.58
  Q 271.94 542.56 277.65 545.43
  C 280.84 547.03 284.43 547.23 287.92 547.23
  Q 296.96 547.22 305.03 547.31
  Q 314.42 547.41 316.49 555.01
  Q 321.23 572.34 324.37 580.16
  Q 323.80 581.23 324.35 581.77
  Q 324.61 582.04 324.61 582.41
  Q 324.63 583.78 325.46 584.89
  Q 325.62 585.11 325.62 585.38
  Q 325.62 585.52 325.62 585.66
  Q 325.60 586.21 325.97 586.60
  Q 327.34 588.04 327.68 589.99
  Q 327.76 590.48 328.05 590.88
  Q 328.56 591.61 328.78 592.47
  Q 328.91 592.94 329.27 593.26
  Q 329.99 593.92 329.58 594.99
  Q 329.44 595.33 329.37 594.97
  Q 329.33 594.78 329.17 594.68
  A 0.28 0.27 33.7 0 0 328.79 594.75
  Q 328.46 595.20 328.39 595.71
  Q 328.37 595.85 328.23 595.84
  Q 328.08 595.83 327.93 595.80
  Q 327.54 595.73 327.64 595.35
  Q 327.77 594.85 327.53 594.36
  A 0.37 0.36 -31.8 0 0 326.98 594.24
  Q 326.26 594.81 326.96 595.40
  Q 327.09 595.51 326.96 595.62
  Q 324.46 597.58 321.70 598.10
  Q 321.24 598.18 320.94 598.55
  Q 320.16 599.50 319.08 599.99
  Q 318.35 600.32 317.86 600.94
  Q 317.24 601.71 316.91 602.58
  Q 316.76 603.01 316.32 603.08
  Q 315.67 603.20 315.49 603.78
  Q 315.40 604.08 315.37 603.77
  Q 315.36 603.72 315.34 603.67
  Q 315.24 603.51 315.06 603.56
  Q 312.71 604.17 311.92 606.47
  Q 311.74 606.99 311.26 607.23
  L 308.67 608.54
  Q 308.50 608.63 308.56 608.80
  Q 308.61 608.95 308.77 608.98
  Q 309.56 609.13 308.76 609.11
  Q 308.45 609.10 308.24 609.34
  Q 308.11 609.48 308.12 609.67
  Q 308.13 609.81 308.16 609.95
  Q 308.21 610.22 308.00 610.39
  Q 307.56 610.76 307.12 610.44
  A 2.51 2.19 -29.4 0 0 305.29 610.06
  Q 304.88 610.13 304.92 610.57
  Q 304.98 611.10 304.48 611.29
  L 300.30 612.89
  Q 299.88 613.05 299.59 613.39
  Q 298.94 614.14 297.98 614.29
  Q 297.78 614.32 297.65 614.47
  Q 297.58 614.54 297.66 614.59
  Q 298.18 614.96 297.55 615.12
  Q 295.68 615.59 294.17 615.56
  Q 293.60 615.54 293.11 615.82
  Q 292.04 616.42 290.72 616.03
  A 0.79 0.78 -83.5 0 0 289.72 616.83
  Q 289.78 618.16 288.71 618.86
  Q 287.82 619.44 288.11 618.42
  Q 288.42 617.37 287.47 616.99
  A 0.24 0.24 0.0 0 0 287.14 617.26
  Q 287.19 617.54 287.06 617.76
  Q 286.88 618.08 286.51 618.13
  Q 286.05 618.18 285.90 617.90
  Q 285.68 617.47 285.29 617.77
  Q 285.02 617.98 285.18 618.11
  Q 285.56 618.39 285.20 618.70
  Q 284.36 619.42 284.59 620.51
  Q 284.64 620.75 284.45 620.60
  Q 284.29 620.47 284.23 620.27
  Q 284.08 619.80 283.81 620.22
  L 282.87 621.71
  Q 282.62 622.10 282.19 622.26
  Q 280.90 622.74 279.52 623.10
  Q 278.52 623.36 278.00 622.49
  Q 277.80 622.14 277.40 622.17
  Q 276.45 622.23 275.60 621.62
  Q 275.17 621.31 275.66 621.11
  Q 275.88 621.03 275.83 620.79
  Q 275.75 620.35 275.36 620.13
  Q 273.76 619.20 271.87 619.04
  Q 271.46 619.01 271.27 618.63
  Q 271.20 618.48 271.13 618.33
  Q 270.84 617.66 270.25 618.08
  Q 269.95 618.30 269.91 618.64
  Q 269.87 618.98 269.53 618.91
  Q 269.33 618.86 269.14 618.74
  Q 268.87 618.58 268.80 618.26
  Q 268.31 616.00 267.88 613.99
  Q 267.77 613.49 267.27 613.57
  Q 264.02 614.09 261.38 613.41
  Q 259.84 613.02 258.37 613.46
  Q 257.92 613.60 257.46 613.53
  Q 256.49 613.39 255.58 613.04
  Q 254.54 612.65 253.36 612.92
  Q 251.05 613.46 249.84 615.24
  Q 249.57 615.63 249.11 615.70
  Q 248.21 615.85 247.48 615.43
  Q 247.06 615.19 246.85 615.63
  L 246.61 616.11
  Q 246.59 616.16 246.60 616.11
  Q 246.80 615.25 246.35 614.46
  Q 246.07 613.96 245.60 614.29
  Q 245.26 614.53 245.04 614.90
  Q 244.84 615.23 244.96 615.59
  Q 245.26 616.47 245.11 617.45
  A 0.28 0.28 0.0 0 0 245.54 617.73
  Q 245.85 617.53 245.83 617.17
  Q 245.79 616.67 246.14 617.03
  Q 246.20 617.09 246.27 617.11
  Q 246.88 617.33 246.36 617.70
  Q 246.05 617.92 246.06 618.30
  A 1.05 1.05 0.0 0 0 246.47 619.09
  Q 247.05 619.55 246.97 620.36
  Q 246.78 622.17 247.85 623.37
  Q 248.19 623.76 248.10 624.27
  Q 248.04 624.63 248.36 624.79
  Q 248.93 625.08 248.94 625.72
  Q 248.95 626.68 249.79 626.87
  Q 250.25 626.98 250.52 627.38
  Q 250.89 627.94 250.73 628.49
  Q 250.69 628.64 250.87 629.27
  Q 250.97 629.60 250.59 630.22
  C 242.38 613.70 236.38 597.66 231.27 580.54
  C 226.02 562.97 222.94 544.78 221.94 526.59
  Q 219.55 483.07 227.63 443.66
  Q 228.50 439.39 231.62 427.99
  C 239.53 399.02 252.40 371.49 269.24 346.52
  Q 270.84 347.06 269.16 349.04
  Q 268.22 350.15 267.83 350.90
  Q 265.67 355.05 263.97 359.43
  Q 263.77 359.95 264.30 360.13
  Q 264.51 360.20 264.73 360.12
  Q 264.88 360.07 264.98 360.19
  Q 265.27 360.50 265.10 360.88
  Q 264.92 361.29 265.20 361.63
  Q 266.43 363.17 268.06 362.29
  Q 268.51 362.05 268.94 362.16
  Q 269.43 362.27 269.82 362.65
  Q 270.14 362.96 270.52 362.70
  Q 270.75 362.54 270.58 362.42
  Q 270.22 362.17 270.65 362.05
  Q 271.61 361.81 271.82 360.86
  Q 271.92 360.38 272.10 360.84
  Q 272.17 361.03 272.36 361.12
  Q 272.48 361.17 272.59 361.09
  Q 273.02 360.78 272.87 360.21
  Q 272.80 359.96 272.56 359.97
  Q 272.50 359.98 272.48 360.03
  Q 272.35 360.27 272.36 360.00
  Q 272.37 359.80 272.33 359.62
  Q 272.21 358.96 272.79 359.30
  Q 274.66 360.37 276.85 358.75
  Q 277.07 358.59 277.22 358.37
  Q 277.58 357.87 277.97 358.33
  Q 278.57 359.04 279.44 359.08
  Q 279.89 359.10 279.86 358.65
  Q 279.83 358.27 280.06 357.96
  Q 280.36 357.55 280.87 357.54
  Q 282.93 357.53 284.95 356.75
  Q 285.37 356.59 285.37 356.14
  L 285.37 355.50
  Q 285.37 354.86 286.01 354.78
  Q 286.15 354.76 286.28 354.71
  Q 286.74 354.55 286.79 355.03
  Q 286.80 355.24 286.92 355.41
  Q 287.26 355.91 287.68 355.48
  Q 289.23 353.92 290.92 355.35
  Q 291.30 355.67 291.79 355.59
  Q 293.99 355.21 296.26 355.13
  Q 297.35 355.09 297.34 353.82
  A 0.67 0.67 0.0 0 1 298.00 353.15
  L 301.14 353.11
  Q 301.66 353.10 302.13 352.89
  Q 303.51 352.28 304.88 352.15
  Q 308.45 351.80 312.33 351.28
  Q 312.71 351.22 313.02 351.46
  Q 314.11 352.30 315.61 352.17
  Q 316.11 352.13 316.43 351.74
  Q 317.13 350.91 318.15 351.03
  Q 318.69 351.10 319.03 350.67
  Q 320.07 349.34 321.65 349.52
  Q 322.49 349.61 321.89 350.22
  Q 321.50 350.61 321.07 350.96
  Q 320.23 351.64 321.31 351.61
  Q 321.36 351.61 321.40 351.65
  Q 321.69 351.94 321.92 351.57
  Q 322.77 350.26 324.07 350.12
  Q 324.59 350.06 324.73 349.57
  Q 325.30 347.65 327.41 347.02
  Q 327.98 346.86 328.27 346.34
  Q 329.15 344.80 330.97 344.31
  Z"
/>
<path fill="#19384c" d="
  M 781.47 400.61
  Q 783.82 410.09 787.44 419.29
  C 788.52 422.03 788.81 424.74 789.79 427.46
  Q 790.87 430.46 791.58 433.46
  Q 792.07 435.53 792.60 437.66
  Q 793.08 439.59 793.41 441.89
  Q 794.21 447.34 795.56 452.69
  C 796.03 454.59 795.53 456.42 796.46 458.06
  Q 796.71 458.50 796.67 459.01
  C 796.42 461.92 797.68 464.15 797.81 466.91
  Q 797.90 469.01 798.37 471.13
  Q 798.82 473.15 798.93 475.40
  Q 799.10 478.74 799.31 482.00
  Q 799.66 487.58 798.83 493.77
  Q 798.16 498.84 798.81 505.73
  Q 799.39 511.77 799.39 516.92
  Q 799.39 522.52 799.40 527.97
  C 799.41 530.79 799.05 533.60 798.79 536.42
  Q 798.51 539.44 797.79 542.35
  Q 797.03 545.40 796.87 548.80
  Q 796.76 551.03 796.18 553.08
  Q 795.62 555.04 795.57 557.13
  Q 795.47 561.75 793.89 565.67
  C 793.48 566.67 793.60 567.83 793.24 568.88
  A 1.05 1.04 -0.7 0 1 792.59 569.54
  Q 791.93 569.78 791.82 570.53
  Q 791.81 570.67 791.68 570.72
  Q 791.35 570.86 791.28 570.42
  Q 791.24 570.20 791.27 569.98
  L 791.69 567.31
  Q 791.79 566.69 791.19 566.85
  Q 790.53 567.03 790.08 566.59
  Q 789.97 566.49 789.90 566.36
  Q 789.84 566.25 789.93 566.16
  Q 790.38 565.73 789.77 565.84
  Q 788.61 566.04 787.91 565.25
  Q 787.73 565.04 787.75 565.32
  Q 787.77 565.57 787.47 565.63
  Q 787.11 565.70 787.06 565.33
  Q 787.04 565.16 787.10 565.00
  Q 787.34 564.42 786.82 564.77
  Q 786.27 565.14 785.68 564.93
  Q 785.01 564.70 784.23 564.77
  Q 782.72 564.91 781.41 565.43
  Q 781.27 565.49 781.18 565.37
  Q 781.08 565.23 781.10 565.09
  Q 781.21 564.34 780.56 564.74
  Q 779.46 565.42 778.25 564.45
  A 0.77 0.76 -38.9 0 0 777.43 564.37
  L 776.93 564.63
  Q 776.33 564.93 776.21 564.28
  L 775.79 562.17
  Q 775.74 561.87 775.43 561.87
  L 774.98 561.87
  Q 774.73 561.87 774.60 562.09
  Q 774.08 562.99 772.95 562.84
  Q 772.79 562.82 772.70 562.69
  Q 772.60 562.54 772.64 562.40
  Q 772.91 561.42 772.38 562.28
  Q 772.31 562.40 772.27 562.51
  Q 772.11 562.96 771.96 562.51
  Q 771.84 562.14 771.84 562.14
  Q 771.66 562.53 771.68 562.96
  Q 771.72 563.64 771.21 563.20
  Q 770.19 562.31 768.86 562.49
  Q 768.40 562.55 768.22 562.13
  Q 767.47 560.40 765.49 560.01
  C 763.83 559.68 764.11 558.20 762.92 557.55
  Q 762.27 557.18 761.60 557.41
  Q 761.20 557.55 760.85 557.30
  Q 760.10 556.76 759.14 556.70
  Q 759.01 556.69 758.90 556.64
  Q 758.64 556.50 758.70 556.21
  Q 758.81 555.71 758.31 555.60
  Q 757.14 555.37 756.23 554.50
  Q 756.13 554.39 756.07 554.26
  Q 755.90 553.92 756.19 553.69
  A 0.08 0.08 0.0 0 0 756.17 553.55
  Q 754.78 553.05 753.34 552.04
  Q 752.65 551.56 752.89 552.35
  Q 752.98 552.65 752.61 552.77
  Q 752.17 552.91 752.12 552.45
  Q 752.09 552.22 752.15 552.00
  A 0.46 0.45 14.0 0 0 751.80 551.43
  Q 749.61 550.96 748.24 552.13
  Q 748.01 552.32 747.72 552.30
  Q 747.49 552.29 747.32 552.12
  A 0.65 0.64 39.7 0 1 747.24 551.30
  Q 747.41 551.06 747.41 550.75
  Q 747.40 550.23 747.08 549.84
  L 744.72 546.91
  Q 744.33 546.43 743.95 546.91
  Q 743.75 547.17 743.98 547.39
  A 0.41 0.40 41.0 0 1 744.02 547.92
  Q 743.51 548.58 742.83 548.53
  Q 742.49 548.51 742.44 548.84
  Q 742.24 550.15 740.63 550.67
  Q 740.19 550.81 740.26 550.35
  L 740.37 549.68
  A 0.54 0.51 84.0 0 1 740.67 549.29
  Q 741.43 548.94 741.88 548.27
  Q 742.25 547.74 741.73 547.37
  Q 741.32 547.07 741.39 546.82
  Q 750.67 544.17 753.79 536.41
  Q 755.32 532.58 755.22 527.00
  Q 754.80 504.97 755.09 487.17
  C 755.26 476.34 747.98 467.97 736.74 467.66
  Q 726.79 467.38 716.66 467.55
  Q 713.42 467.60 711.46 466.20
  C 706.73 462.81 707.88 455.92 706.60 451.05
  Q 705.97 448.66 705.16 446.22
  Q 705.16 438.21 710.16 436.16
  Q 711.62 435.55 714.60 435.14
  Q 716.83 434.84 719.07 434.15
  Q 722.67 433.04 726.03 431.81
  Q 742.18 425.91 754.87 413.31
  Q 766.99 401.27 773.39 387.54
  A 0.88 0.87 -48.6 0 1 774.92 387.44
  Q 778.91 393.74 781.47 400.61
  Z"
/>
<path fill="#14303e" d="
  M 781.47 400.61
  Q 801.31 447.85 801.64 499.88
  C 801.72 511.32 801.83 521.58 800.78 532.33
  Q 795.94 581.94 774.57 627.10
  C 771.39 633.83 768.20 640.63 764.44 646.97
  C 747.36 675.81 725.28 702.74 699.53 724.07
  Q 641.37 772.26 564.87 787.04
  Q 525.81 794.58 492.18 791.96
  C 441.41 788.01 392.74 771.00 350.01 743.13
  C 346.21 740.65 341.53 736.95 337.10 733.99
  Q 333.95 731.89 331.95 730.31
  Q 312.55 714.97 298.22 699.03
  Q 289.12 688.91 277.32 673.93
  Q 263.35 656.20 250.59 630.22
  Q 250.97 629.60 250.87 629.27
  Q 250.69 628.64 250.73 628.49
  Q 250.89 627.94 250.52 627.38
  Q 250.25 626.98 249.79 626.87
  Q 248.95 626.68 248.94 625.72
  Q 248.93 625.08 248.36 624.79
  Q 248.04 624.63 248.10 624.27
  Q 248.19 623.76 247.85 623.37
  Q 246.78 622.17 246.97 620.36
  Q 247.05 619.55 246.47 619.09
  A 1.05 1.05 0.0 0 1 246.06 618.30
  Q 246.05 617.92 246.36 617.70
  Q 246.88 617.33 246.27 617.11
  Q 246.20 617.09 246.14 617.03
  Q 245.79 616.67 245.83 617.17
  Q 245.85 617.53 245.54 617.73
  A 0.28 0.28 0.0 0 1 245.11 617.45
  Q 245.26 616.47 244.96 615.59
  Q 244.84 615.23 245.04 614.90
  Q 245.26 614.53 245.60 614.29
  Q 246.07 613.96 246.35 614.46
  Q 246.80 615.25 246.60 616.11
  Q 246.59 616.16 246.61 616.11
  L 246.85 615.63
  Q 247.06 615.19 247.48 615.43
  Q 248.21 615.85 249.11 615.70
  Q 249.57 615.63 249.84 615.24
  Q 251.05 613.46 253.36 612.92
  Q 254.54 612.65 255.58 613.04
  Q 256.49 613.39 257.46 613.53
  Q 257.92 613.60 258.37 613.46
  Q 259.84 613.02 261.38 613.41
  Q 264.02 614.09 267.27 613.57
  Q 267.77 613.49 267.88 613.99
  Q 268.31 616.00 268.80 618.26
  Q 268.87 618.58 269.14 618.74
  Q 269.33 618.86 269.53 618.91
  Q 269.87 618.98 269.91 618.64
  Q 269.95 618.30 270.25 618.08
  Q 270.84 617.66 271.13 618.33
  Q 271.20 618.48 271.27 618.63
  Q 271.46 619.01 271.87 619.04
  Q 273.76 619.20 275.36 620.13
  Q 275.75 620.35 275.83 620.79
  Q 275.88 621.03 275.66 621.11
  Q 275.17 621.31 275.60 621.62
  Q 276.45 622.23 277.40 622.17
  Q 277.80 622.14 278.00 622.49
  Q 278.52 623.36 279.52 623.10
  Q 280.90 622.74 282.19 622.26
  Q 282.62 622.10 282.87 621.71
  L 283.81 620.22
  Q 284.08 619.80 284.23 620.27
  Q 284.29 620.47 284.45 620.60
  Q 284.64 620.75 284.59 620.51
  Q 284.36 619.42 285.20 618.70
  Q 285.56 618.39 285.18 618.11
  Q 285.02 617.98 285.29 617.77
  Q 285.68 617.47 285.90 617.90
  Q 286.05 618.18 286.51 618.13
  Q 286.88 618.08 287.06 617.76
  Q 287.19 617.54 287.14 617.26
  A 0.24 0.24 0.0 0 1 287.47 616.99
  Q 288.42 617.37 288.11 618.42
  Q 287.82 619.44 288.71 618.86
  Q 289.78 618.16 289.72 616.83
  A 0.79 0.78 -83.5 0 1 290.72 616.03
  Q 292.04 616.42 293.11 615.82
  Q 293.60 615.54 294.17 615.56
  Q 295.68 615.59 297.55 615.12
  Q 298.18 614.96 297.66 614.59
  Q 297.58 614.54 297.65 614.47
  Q 297.78 614.32 297.98 614.29
  Q 298.94 614.14 299.59 613.39
  Q 299.88 613.05 300.30 612.89
  L 304.48 611.29
  Q 304.98 611.10 304.92 610.57
  Q 304.88 610.13 305.29 610.06
  A 2.51 2.19 -29.4 0 1 307.12 610.44
  Q 307.56 610.76 308.00 610.39
  Q 308.21 610.22 308.16 609.95
  Q 308.13 609.81 308.12 609.67
  Q 308.11 609.48 308.24 609.34
  Q 308.45 609.10 308.76 609.11
  Q 309.56 609.13 308.77 608.98
  Q 308.61 608.95 308.56 608.80
  Q 308.50 608.63 308.67 608.54
  L 311.26 607.23
  Q 311.74 606.99 311.92 606.47
  Q 312.71 604.17 315.06 603.56
  Q 315.24 603.51 315.34 603.67
  Q 315.36 603.72 315.37 603.77
  Q 315.40 604.08 315.49 603.78
  Q 315.67 603.20 316.32 603.08
  Q 316.76 603.01 316.91 602.58
  Q 317.24 601.71 317.86 600.94
  Q 318.35 600.32 319.08 599.99
  Q 320.16 599.50 320.94 598.55
  Q 321.24 598.18 321.70 598.10
  Q 324.46 597.58 326.96 595.62
  Q 327.09 595.51 326.96 595.40
  Q 326.26 594.81 326.98 594.24
  A 0.37 0.36 -31.8 0 1 327.53 594.36
  Q 327.77 594.85 327.64 595.35
  Q 327.54 595.73 327.93 595.80
  Q 328.08 595.83 328.23 595.84
  Q 328.37 595.85 328.39 595.71
  Q 328.46 595.20 328.79 594.75
  A 0.28 0.27 33.7 0 1 329.17 594.68
  Q 329.33 594.78 329.37 594.97
  Q 329.44 595.33 329.58 594.99
  Q 329.99 593.92 329.27 593.26
  Q 328.91 592.94 328.78 592.47
  Q 328.56 591.61 328.05 590.88
  Q 327.76 590.48 327.68 589.99
  Q 327.34 588.04 325.97 586.60
  Q 325.60 586.21 325.62 585.66
  Q 325.62 585.52 325.62 585.38
  Q 325.62 585.11 325.46 584.89
  Q 324.63 583.78 324.61 582.41
  Q 324.61 582.04 324.35 581.77
  Q 323.80 581.23 324.37 580.16
  Q 328.95 591.58 334.94 602.27
  C 336.24 604.58 338.19 609.32 337.12 612.00
  Q 336.10 614.57 334.13 616.39
  Q 327.61 622.41 321.20 628.74
  C 314.48 634.63 312.43 643.61 317.56 650.94
  Q 321.59 656.70 327.38 662.32
  Q 340.64 675.19 354.79 689.24
  Q 358.25 692.67 361.59 694.67
  C 368.41 698.74 376.94 696.24 382.44 690.54
  Q 387.23 685.56 391.52 680.17
  C 396.09 674.41 401.18 671.02 408.50 675.41
  Q 416.83 680.42 424.92 684.56
  C 436.91 690.69 450.75 694.46 464.01 698.99
  C 468.51 700.53 469.98 703.89 469.90 708.48
  Q 469.79 716.00 469.72 723.51
  Q 469.68 728.40 470.53 731.33
  C 472.72 738.91 478.31 744.33 486.46 744.31
  Q 511.39 744.23 536.87 744.39
  Q 543.37 744.43 547.75 740.00
  C 551.08 736.63 553.25 732.31 553.25 727.59
  Q 553.24 717.48 553.51 705.36
  C 553.59 701.59 555.52 698.87 559.41 697.97
  C 578.11 693.68 596.58 687.09 612.67 676.93
  C 615.46 675.17 619.92 673.24 623.22 674.44
  C 626.13 675.49 628.45 677.72 630.46 680.00
  Q 636.07 686.40 642.17 692.60
  C 643.97 694.43 645.75 695.11 648.26 695.72
  Q 659.85 698.55 667.16 690.73
  Q 684.40 672.30 701.73 655.54
  C 709.84 647.70 710.68 638.80 702.76 630.36
  C 698.11 625.40 692.81 621.09 688.43 616.56
  Q 687.57 615.68 686.11 613.28
  C 684.46 609.69 687.12 605.23 688.90 601.83
  C 691.71 596.48 694.71 590.49 696.43 585.75
  Q 701.04 573.05 705.76 557.99
  C 707.64 551.98 709.62 547.19 716.75 547.25
  Q 729.14 547.36 741.39 546.82
  Q 741.32 547.07 741.73 547.37
  Q 742.25 547.74 741.88 548.27
  Q 741.43 548.94 740.67 549.29
  A 0.54 0.51 84.0 0 0 740.37 549.68
  L 740.26 550.35
  Q 740.19 550.81 740.63 550.67
  Q 742.24 550.15 742.44 548.84
  Q 742.49 548.51 742.83 548.53
  Q 743.51 548.58 744.02 547.92
  A 0.41 0.40 41.0 0 0 743.98 547.39
  Q 743.75 547.17 743.95 546.91
  Q 744.33 546.43 744.72 546.91
  L 747.08 549.84
  Q 747.40 550.23 747.41 550.75
  Q 747.41 551.06 747.24 551.30
  A 0.65 0.64 39.7 0 0 747.32 552.12
  Q 747.49 552.29 747.72 552.30
  Q 748.01 552.32 748.24 552.13
  Q 749.61 550.96 751.80 551.43
  A 0.46 0.45 14.0 0 1 752.15 552.00
  Q 752.09 552.22 752.12 552.45
  Q 752.17 552.91 752.61 552.77
  Q 752.98 552.65 752.89 552.35
  Q 752.65 551.56 753.34 552.04
  Q 754.78 553.05 756.17 553.55
  A 0.08 0.08 0.0 0 1 756.19 553.69
  Q 755.90 553.92 756.07 554.26
  Q 756.13 554.39 756.23 554.50
  Q 757.14 555.37 758.31 555.60
  Q 758.81 555.71 758.70 556.21
  Q 758.64 556.50 758.90 556.64
  Q 759.01 556.69 759.14 556.70
  Q 760.10 556.76 760.85 557.30
  Q 761.20 557.55 761.60 557.41
  Q 762.27 557.18 762.92 557.55
  C 764.11 558.20 763.83 559.68 765.49 560.01
  Q 767.47 560.40 768.22 562.13
  Q 768.40 562.55 768.86 562.49
  Q 770.19 562.31 771.21 563.20
  Q 771.72 563.64 771.68 562.96
  Q 771.66 562.53 771.84 562.14
  Q 771.84 562.14 771.96 562.51
  Q 772.11 562.96 772.27 562.51
  Q 772.31 562.40 772.38 562.28
  Q 772.91 561.42 772.64 562.40
  Q 772.60 562.54 772.70 562.69
  Q 772.79 562.82 772.95 562.84
  Q 774.08 562.99 774.60 562.09
  Q 774.73 561.87 774.98 561.87
  L 775.43 561.87
  Q 775.74 561.87 775.79 562.17
  L 776.21 564.28
  Q 776.33 564.93 776.93 564.63
  L 777.43 564.37
  A 0.77 0.76 -38.9 0 1 778.25 564.45
  Q 779.46 565.42 780.56 564.74
  Q 781.21 564.34 781.10 565.09
  Q 781.08 565.23 781.18 565.37
  Q 781.27 565.49 781.41 565.43
  Q 782.72 564.91 784.23 564.77
  Q 785.01 564.70 785.68 564.93
  Q 786.27 565.14 786.82 564.77
  Q 787.34 564.42 787.10 565.00
  Q 787.04 565.16 787.06 565.33
  Q 787.11 565.70 787.47 565.63
  Q 787.77 565.57 787.75 565.32
  Q 787.73 565.04 787.91 565.25
  Q 788.61 566.04 789.77 565.84
  Q 790.38 565.73 789.93 566.16
  Q 789.84 566.25 789.90 566.36
  Q 789.97 566.49 790.08 566.59
  Q 790.53 567.03 791.19 566.85
  Q 791.79 566.69 791.69 567.31
  L 791.27 569.98
  Q 791.24 570.20 791.28 570.42
  Q 791.35 570.86 791.68 570.72
  Q 791.81 570.67 791.82 570.53
  Q 791.93 569.78 792.59 569.54
  A 1.05 1.04 -0.7 0 0 793.24 568.88
  C 793.60 567.83 793.48 566.67 793.89 565.67
  Q 795.47 561.75 795.57 557.13
  Q 795.62 555.04 796.18 553.08
  Q 796.76 551.03 796.87 548.80
  Q 797.03 545.40 797.79 542.35
  Q 798.51 539.44 798.79 536.42
  C 799.05 533.60 799.41 530.79 799.40 527.97
  Q 799.39 522.52 799.39 516.92
  Q 799.39 511.77 798.81 505.73
  Q 798.16 498.84 798.83 493.77
  Q 799.66 487.58 799.31 482.00
  Q 799.10 478.74 798.93 475.40
  Q 798.82 473.15 798.37 471.13
  Q 797.90 469.01 797.81 466.91
  C 797.68 464.15 796.42 461.92 796.67 459.01
  Q 796.71 458.50 796.46 458.06
  C 795.53 456.42 796.03 454.59 795.56 452.69
  Q 794.21 447.34 793.41 441.89
  Q 793.08 439.59 792.60 437.66
  Q 792.07 435.53 791.58 433.46
  Q 790.87 430.46 789.79 427.46
  C 788.81 424.74 788.52 422.03 787.44 419.29
  Q 783.82 410.09 781.47 400.61
  Z"
/>
<path fill="#ee5701" d="
  M 382.53 432.43
  Q 376.64 442.26 372.17 452.68
  C 361.06 478.51 359.06 508.09 363.66 535.89
  C 365.43 546.65 368.90 556.03 373.04 565.93
  C 379.84 582.20 390.09 597.00 402.40 609.60
  Q 405.16 612.42 414.20 620.61
  Q 413.73 621.61 415.55 623.19
  Q 417.76 625.09 424.18 629.30
  Q 426.30 630.69 428.08 632.31
  Q 428.48 632.68 429.01 632.83
  C 430.06 633.12 430.22 633.79 431.16 634.30
  Q 437.32 637.64 442.93 640.66
  Q 443.54 640.99 443.10 641.53
  Q 442.84 641.84 442.83 642.24
  Q 442.82 642.92 442.14 642.84
  Q 441.21 642.73 440.58 642.30
  Q 440.22 642.07 439.85 642.28
  Q 438.88 642.82 437.85 642.24
  A 2.31 2.19 60.6 0 0 436.94 641.96
  Q 432.04 641.60 428.17 642.16
  Q 426.54 642.39 424.98 643.06
  Q 424.49 643.28 424.05 643.17
  Q 423.41 643.02 422.84 642.69
  Q 422.41 642.45 421.99 642.70
  Q 421.45 643.02 420.95 642.65
  Q 420.55 642.34 420.19 642.70
  Q 419.31 643.58 418.11 643.21
  C 417.54 643.04 417.17 643.13 416.67 643.43
  A 4.90 3.89 29.3 0 1 413.64 643.92
  Q 412.29 643.70 410.97 644.47
  Q 410.47 644.75 410.05 644.37
  Q 409.04 643.48 407.84 644.19
  Q 407.54 644.37 407.23 644.21
  Q 405.72 643.45 403.83 643.34
  C 403.37 643.31 402.85 643.03 402.58 642.65
  Q 402.34 642.31 401.99 642.54
  Q 401.12 643.10 400.31 642.43
  Q 399.91 642.10 399.40 642.05
  L 389.12 640.99
  Q 388.58 640.93 388.15 640.60
  Q 387.12 639.82 385.88 640.21
  Q 385.18 640.43 384.59 639.99
  Q 383.74 639.35 382.79 639.32
  Q 382.40 639.30 382.30 638.92
  Q 382.21 638.54 381.71 638.39
  A 0.73 0.69 42.5 0 0 381.26 638.40
  L 379.72 638.93
  Q 379.29 639.08 378.87 638.90
  Q 376.71 638.02 374.53 637.22
  C 373.75 636.94 372.89 637.13 372.19 637.51
  Q 371.81 637.72 371.50 637.41
  Q 370.78 636.67 369.78 636.92
  A 0.55 0.54 -13.0 0 1 369.12 636.51
  Q 369.04 636.18 368.70 636.14
  Q 368.27 636.08 367.86 636.23
  Q 366.85 636.61 366.18 635.65
  Q 365.91 635.26 365.44 635.31
  Q 365.23 635.33 365.03 635.43
  Q 364.58 635.64 364.14 635.40
  Q 361.08 633.74 357.73 634.09
  Q 357.41 634.13 357.16 633.92
  Q 357.04 633.82 356.91 633.73
  Q 356.46 633.42 355.95 633.61
  Q 354.19 634.28 352.76 632.87
  A 1.66 1.66 0.0 0 0 351.64 632.41
  Q 351.19 632.41 350.88 632.14
  Q 350.53 631.83 350.06 631.84
  Q 349.84 631.84 349.86 632.18
  Q 349.88 632.60 349.54 632.36
  Q 347.24 630.79 344.86 630.74
  Q 343.73 630.71 342.62 630.59
  Q 339.26 630.20 335.78 629.90
  Q 335.53 629.88 335.31 629.99
  Q 334.97 630.16 334.66 630.38
  A 0.90 0.90 0.0 0 1 333.81 630.48
  Q 331.81 629.67 330.04 630.50
  A 0.31 0.31 0.0 0 1 329.64 630.37
  Q 329.38 629.90 328.86 629.92
  Q 328.52 629.93 328.41 629.59
  Q 328.11 628.65 327.21 628.99
  Q 326.73 629.16 326.26 628.97
  Q 325.47 628.64 324.98 627.93
  Q 324.64 627.44 325.19 627.21
  Q 325.54 627.07 325.26 626.78
  Q 325.03 626.53 325.34 626.39
  Q 325.52 626.32 325.71 626.37
  Q 326.28 626.56 326.23 625.96
  Q 326.20 625.59 325.99 625.37
  Q 325.62 625.00 325.29 625.40
  Q 323.52 627.54 321.20 628.74
  Q 327.61 622.41 334.13 616.39
  Q 336.10 614.57 337.12 612.00
  C 338.19 609.32 336.24 604.58 334.94 602.27
  Q 328.95 591.58 324.37 580.16
  Q 321.23 572.34 316.49 555.01
  Q 314.42 547.41 305.03 547.31
  Q 296.96 547.22 287.92 547.23
  C 284.43 547.23 280.84 547.03 277.65 545.43
  Q 271.94 542.56 269.29 536.58
  Q 267.94 533.55 267.89 523.78
  Q 267.86 516.99 267.87 510.22
  L 267.89 503.54
  A 0.87 0.87 0.0 0 1 268.22 502.86
  L 268.43 502.70
  Q 268.62 502.56 268.58 502.32
  Q 268.17 499.76 269.23 497.42
  Q 269.86 496.04 269.86 494.33
  Q 269.86 492.71 269.87 490.96
  Q 269.87 488.72 270.42 486.72
  Q 270.83 485.20 271.02 483.74
  A 0.06 0.06 0.0 0 1 271.13 483.75
  L 270.91 487.66
  Q 270.91 487.73 270.86 487.77
  Q 270.75 487.87 270.65 487.97
  Q 270.57 488.05 270.56 488.17
  Q 270.31 490.85 270.24 493.04
  Q 270.17 495.26 270.51 493.06
  C 270.63 492.22 270.95 491.48 270.90 490.61
  Q 270.78 488.77 271.31 486.70
  Q 271.43 486.21 271.92 486.11
  Q 272.62 485.97 272.97 486.60
  Q 273.20 487.03 273.58 486.73
  Q 274.55 485.98 274.89 484.81
  Q 275.42 482.96 276.28 481.17
  Q 276.58 480.54 277.28 480.54
  Q 278.45 480.54 279.56 480.06
  Q 279.62 480.03 279.63 480.10
  Q 279.65 480.19 279.64 480.10
  Q 279.63 480.03 279.57 480.05
  Q 278.95 480.25 278.23 480.07
  A 0.36 0.36 0.0 0 1 278.12 479.42
  Q 280.23 478.00 282.84 477.01
  Q 283.93 476.59 285.11 476.80
  C 286.32 477.02 287.28 476.78 288.55 477.14
  Q 289.78 477.49 290.99 477.30
  Q 292.16 477.11 293.35 477.34
  Q 296.04 477.85 298.38 479.07
  Q 298.81 479.29 299.29 479.31
  L 301.88 479.40
  Q 302.38 479.42 302.80 479.17
  L 305.63 477.49
  Q 306.06 477.23 306.30 476.79
  Q 306.80 475.83 307.82 475.70
  Q 308.30 475.64 308.62 475.28
  Q 309.55 474.26 310.59 473.19
  Q 311.87 471.87 313.40 472.34
  Q 313.79 472.46 314.16 472.29
  Q 314.46 472.15 314.35 471.99
  Q 314.12 471.69 314.50 471.69
  Q 315.26 471.68 316.02 471.59
  A 1.01 1.01 0.0 0 0 316.79 471.07
  Q 317.11 470.50 317.79 470.57
  Q 318.35 470.63 318.87 470.41
  Q 321.24 469.38 323.46 468.73
  Q 324.38 468.46 325.13 467.91
  Q 325.69 467.51 326.36 467.62
  Q 326.77 467.68 327.10 467.42
  Q 328.67 466.17 330.36 466.56
  Q 330.70 466.64 330.91 466.37
  Q 331.00 466.25 331.13 466.20
  Q 331.25 466.15 331.37 466.14
  Q 336.93 465.72 341.99 463.62
  Q 342.48 463.42 342.98 463.58
  Q 343.27 463.68 343.58 463.62
  Q 344.16 463.52 344.16 462.92
  Q 344.15 462.47 344.62 462.40
  Q 346.07 462.19 347.15 462.41
  Q 347.66 462.52 348.06 462.19
  Q 348.45 461.85 348.99 461.83
  A 0.84 0.83 -79.3 0 0 349.70 461.34
  Q 350.81 458.98 353.22 460.21
  Q 353.78 460.50 354.01 459.91
  Q 354.32 459.09 355.01 458.51
  Q 355.34 458.23 355.46 457.82
  Q 355.69 456.99 356.48 456.71
  A 0.84 0.81 46.3 0 1 357.12 456.74
  L 358.09 457.19
  Q 358.51 457.39 358.82 457.05
  Q 360.99 454.68 363.67 455.09
  Q 364.14 455.15 364.55 454.93
  Q 364.77 454.80 364.86 454.58
  Q 365.03 454.16 365.44 453.98
  Q 365.75 453.83 365.82 454.06
  Q 365.97 454.52 366.35 454.22
  Q 367.05 453.67 367.77 454.13
  Q 368.21 454.42 368.68 454.17
  Q 369.41 453.78 369.49 453.05
  Q 369.53 452.60 369.94 452.39
  Q 370.53 452.07 370.59 451.39
  Q 370.63 450.97 370.91 450.67
  Q 371.03 450.54 371.20 450.46
  Q 371.49 450.31 371.49 449.98
  Q 371.49 449.32 371.98 448.87
  A 1.49 1.48 69.3 0 0 372.46 447.80
  Q 372.48 446.93 373.21 446.47
  Q 373.52 446.28 373.53 445.91
  Q 373.55 445.13 374.14 444.61
  Q 374.55 444.25 374.44 443.72
  Q 374.32 443.12 374.89 442.86
  Q 375.47 442.61 375.22 442.04
  Q 375.09 441.75 375.08 441.43
  Q 375.07 440.79 375.13 441.42
  Q 375.14 441.60 375.29 441.70
  A 0.17 0.17 0.0 0 0 375.55 441.58
  Q 375.61 441.03 375.86 440.56
  Q 378.51 435.46 382.53 432.43
  Z"
/>
<path fill="#ee5701" d="
  M 705.16 446.22
  Q 705.97 448.66 706.60 451.05
  C 707.88 455.92 706.73 462.81 711.46 466.20
  Q 713.42 467.60 716.66 467.55
  Q 726.79 467.38 736.74 467.66
  C 747.98 467.97 755.26 476.34 755.09 487.17
  Q 754.80 504.97 755.22 527.00
  Q 755.32 532.58 753.79 536.41
  Q 750.67 544.17 741.39 546.82
  Q 729.14 547.36 716.75 547.25
  C 709.62 547.19 707.64 551.98 705.76 557.99
  Q 701.04 573.05 696.43 585.75
  C 694.71 590.49 691.71 596.48 688.90 601.83
  C 687.12 605.23 684.46 609.69 686.11 613.28
  Q 686.19 613.51 685.93 613.75
  Q 685.45 614.22 686.07 614.41
  Q 686.22 614.46 686.12 614.70
  Q 685.98 615.01 685.65 614.90
  Q 684.26 614.44 684.55 613.14
  Q 684.60 612.88 684.35 612.80
  Q 683.83 612.63 683.67 612.09
  Q 683.52 611.59 683.05 611.38
  L 680.81 610.37
  Q 680.36 610.16 680.02 610.53
  Q 679.29 611.33 678.28 610.94
  Q 676.05 610.09 673.97 609.56
  Q 672.86 609.27 672.08 608.43
  Q 671.75 608.08 671.27 608.10
  Q 670.45 608.14 669.57 608.00
  Q 668.95 607.91 668.05 607.41
  Q 666.86 606.74 665.67 606.61
  Q 665.20 606.55 664.97 606.14
  Q 664.65 605.58 664.02 605.43
  Q 663.24 605.25 662.54 605.59
  Q 661.41 606.14 660.41 605.43
  Q 659.98 605.13 659.45 605.09
  Q 656.44 604.89 653.73 603.79
  Q 651.95 603.06 649.96 602.80
  Q 648.21 602.57 646.99 601.59
  A 0.93 0.92 -44.1 0 0 645.83 601.58
  Q 644.40 602.69 642.70 602.36
  Q 642.24 602.27 642.03 601.84
  Q 641.85 601.47 641.88 601.05
  Q 641.94 600.47 641.41 600.70
  L 639.15 601.71
  Q 638.65 601.93 638.12 601.79
  L 633.27 600.42
  A 0.50 0.50 0.0 0 1 633.01 599.62
  L 634.81 597.40
  Q 635.13 597.01 635.20 596.52
  Q 635.30 595.75 635.72 595.17
  Q 638.07 591.93 640.20 588.41
  Q 640.29 588.27 640.42 588.17
  Q 640.53 588.09 640.66 588.14
  Q 641.20 588.33 641.08 587.77
  Q 640.98 587.33 641.32 587.02
  C 641.80 586.59 642.18 585.64 642.35 585.03
  A 1.76 1.71 76.7 0 1 642.83 584.23
  Q 643.42 583.67 643.38 582.79
  Q 643.35 582.29 643.60 581.86
  Q 646.87 576.15 650.50 567.73
  Q 654.76 557.83 657.25 551.10
  Q 658.16 548.62 658.79 546.06
  Q 659.42 543.50 660.05 541.13
  Q 660.47 539.53 660.36 537.75
  Q 660.32 537.13 660.61 536.57
  Q 661.39 535.06 661.18 533.33
  Q 661.11 532.80 661.31 532.30
  Q 662.05 530.52 662.11 529.12
  Q 662.19 527.34 661.68 522.91
  Q 663.01 507.04 661.91 490.99
  Q 661.81 489.61 663.98 487.49
  Q 684.60 467.27 705.16 446.22
  Z"
/>
<path fill="#e24d01" d="
  M 661.68 522.91
  Q 662.19 527.34 662.11 529.12
  Q 662.05 530.52 661.31 532.30
  Q 661.11 532.80 661.18 533.33
  Q 661.39 535.06 660.61 536.57
  Q 660.32 537.13 660.36 537.75
  Q 660.47 539.53 660.05 541.13
  Q 659.42 543.50 658.79 546.06
  Q 658.16 548.62 657.25 551.10
  Q 654.76 557.83 650.50 567.73
  Q 646.87 576.15 643.60 581.86
  Q 643.35 582.29 643.38 582.79
  Q 643.42 583.67 642.83 584.23
  A 1.76 1.71 76.7 0 0 642.35 585.03
  C 642.18 585.64 641.80 586.59 641.32 587.02
  Q 640.98 587.33 641.08 587.77
  Q 641.20 588.33 640.66 588.14
  Q 640.53 588.09 640.42 588.17
  Q 640.29 588.27 640.20 588.41
  Q 638.07 591.93 635.72 595.17
  Q 635.30 595.75 635.20 596.52
  Q 635.13 597.01 634.81 597.40
  L 633.01 599.62
  A 0.50 0.50 0.0 0 0 633.27 600.42
  L 638.12 601.79
  Q 638.65 601.93 639.15 601.71
  L 641.41 600.70
  Q 641.94 600.47 641.88 601.05
  Q 641.85 601.47 642.03 601.84
  Q 642.24 602.27 642.70 602.36
  Q 644.40 602.69 645.83 601.58
  A 0.93 0.92 -44.1 0 1 646.99 601.59
  Q 648.21 602.57 649.96 602.80
  Q 651.95 603.06 653.73 603.79
  Q 656.44 604.89 659.45 605.09
  Q 659.98 605.13 660.41 605.43
  Q 661.41 606.14 662.54 605.59
  Q 663.24 605.25 664.02 605.43
  Q 664.65 605.58 664.97 606.14
  Q 665.20 606.55 665.67 606.61
  Q 666.86 606.74 668.05 607.41
  Q 668.95 607.91 669.57 608.00
  Q 670.45 608.14 671.27 608.10
  Q 671.75 608.08 672.08 608.43
  Q 672.86 609.27 673.97 609.56
  Q 676.05 610.09 678.28 610.94
  Q 679.29 611.33 680.02 610.53
  Q 680.36 610.16 680.81 610.37
  L 683.05 611.38
  Q 683.52 611.59 683.67 612.09
  Q 683.83 612.63 684.35 612.80
  Q 684.60 612.88 684.55 613.14
  Q 684.26 614.44 685.65 614.90
  Q 685.98 615.01 686.12 614.70
  Q 686.22 614.46 686.07 614.41
  Q 685.45 614.22 685.93 613.75
  Q 686.19 613.51 686.11 613.28
  Q 687.57 615.68 688.43 616.56
  C 692.81 621.09 698.11 625.40 702.76 630.36
  C 710.68 638.80 709.84 647.70 701.73 655.54
  Q 684.40 672.30 667.16 690.73
  Q 659.85 698.55 648.26 695.72
  C 645.75 695.11 643.97 694.43 642.17 692.60
  Q 636.07 686.40 630.46 680.00
  C 628.45 677.72 626.13 675.49 623.22 674.44
  C 619.92 673.24 615.46 675.17 612.67 676.93
  C 596.58 687.09 578.11 693.68 559.41 697.97
  C 555.52 698.87 553.59 701.59 553.51 705.36
  Q 553.24 717.48 553.25 727.59
  C 553.25 732.31 551.08 736.63 547.75 740.00
  Q 543.37 744.43 536.87 744.39
  Q 511.39 744.23 486.46 744.31
  C 478.31 744.33 472.72 738.91 470.53 731.33
  Q 469.68 728.40 469.72 723.51
  Q 469.79 716.00 469.90 708.48
  C 469.98 703.89 468.51 700.53 464.01 698.99
  C 450.75 694.46 436.91 690.69 424.92 684.56
  Q 416.83 680.42 408.50 675.41
  C 401.18 671.02 396.09 674.41 391.52 680.17
  Q 387.23 685.56 382.44 690.54
  C 376.94 696.24 368.41 698.74 361.59 694.67
  Q 358.25 692.67 354.79 689.24
  Q 340.64 675.19 327.38 662.32
  Q 321.59 656.70 317.56 650.94
  C 312.43 643.61 314.48 634.63 321.20 628.74
  Q 323.52 627.54 325.29 625.40
  Q 325.62 625.00 325.99 625.37
  Q 326.20 625.59 326.23 625.96
  Q 326.28 626.56 325.71 626.37
  Q 325.52 626.32 325.34 626.39
  Q 325.03 626.53 325.26 626.78
  Q 325.54 627.07 325.19 627.21
  Q 324.64 627.44 324.98 627.93
  Q 325.47 628.64 326.26 628.97
  Q 326.73 629.16 327.21 628.99
  Q 328.11 628.65 328.41 629.59
  Q 328.52 629.93 328.86 629.92
  Q 329.38 629.90 329.64 630.37
  A 0.31 0.31 0.0 0 0 330.04 630.50
  Q 331.81 629.67 333.81 630.48
  A 0.90 0.90 0.0 0 0 334.66 630.38
  Q 334.97 630.16 335.31 629.99
  Q 335.53 629.88 335.78 629.90
  Q 339.26 630.20 342.62 630.59
  Q 343.73 630.71 344.86 630.74
  Q 347.24 630.79 349.54 632.36
  Q 349.88 632.60 349.86 632.18
  Q 349.84 631.84 350.06 631.84
  Q 350.53 631.83 350.88 632.14
  Q 351.19 632.41 351.64 632.41
  A 1.66 1.66 0.0 0 1 352.76 632.87
  Q 354.19 634.28 355.95 633.61
  Q 356.46 633.42 356.91 633.73
  Q 357.04 633.82 357.16 633.92
  Q 357.41 634.13 357.73 634.09
  Q 361.08 633.74 364.14 635.40
  Q 364.58 635.64 365.03 635.43
  Q 365.23 635.33 365.44 635.31
  Q 365.91 635.26 366.18 635.65
  Q 366.85 636.61 367.86 636.23
  Q 368.27 636.08 368.70 636.14
  Q 369.04 636.18 369.12 636.51
  A 0.55 0.54 -13.0 0 0 369.78 636.92
  Q 370.78 636.67 371.50 637.41
  Q 371.81 637.72 372.19 637.51
  C 372.89 637.13 373.75 636.94 374.53 637.22
  Q 376.71 638.02 378.87 638.90
  Q 379.29 639.08 379.72 638.93
  L 381.26 638.40
  A 0.73 0.69 42.5 0 1 381.71 638.39
  Q 382.21 638.54 382.30 638.92
  Q 382.40 639.30 382.79 639.32
  Q 383.74 639.35 384.59 639.99
  Q 385.18 640.43 385.88 640.21
  Q 387.12 639.82 388.15 640.60
  Q 388.58 640.93 389.12 640.99
  L 399.40 642.05
  Q 399.91 642.10 400.31 642.43
  Q 401.12 643.10 401.99 642.54
  Q 402.34 642.31 402.58 642.65
  C 402.85 643.03 403.37 643.31 403.83 643.34
  Q 405.72 643.45 407.23 644.21
  Q 407.54 644.37 407.84 644.19
  Q 409.04 643.48 410.05 644.37
  Q 410.47 644.75 410.97 644.47
  Q 412.29 643.70 413.64 643.92
  A 4.90 3.89 29.3 0 0 416.67 643.43
  C 417.17 643.13 417.54 643.04 418.11 643.21
  Q 419.31 643.58 420.19 642.70
  Q 420.55 642.34 420.95 642.65
  Q 421.45 643.02 421.99 642.70
  Q 422.41 642.45 422.84 642.69
  Q 423.41 643.02 424.05 643.17
  Q 424.49 643.28 424.98 643.06
  Q 426.54 642.39 428.17 642.16
  Q 432.04 641.60 436.94 641.96
  A 2.31 2.19 60.6 0 1 437.85 642.24
  Q 438.88 642.82 439.85 642.28
  Q 440.22 642.07 440.58 642.30
  Q 441.21 642.73 442.14 642.84
  Q 442.82 642.92 442.83 642.24
  Q 442.84 641.84 443.10 641.53
  Q 443.54 640.99 442.93 640.66
  Q 437.32 637.64 431.16 634.30
  C 430.22 633.79 430.06 633.12 429.01 632.83
  Q 428.48 632.68 428.08 632.31
  Q 426.30 630.69 424.18 629.30
  Q 417.76 625.09 415.55 623.19
  Q 413.73 621.61 414.20 620.61
  C 432.36 635.91 454.02 646.84 477.23 651.53
  Q 485.71 653.24 489.45 653.78
  C 518.57 658.00 548.58 653.17 575.59 641.34
  Q 584.79 637.31 593.29 631.91
  Q 629.06 609.22 647.70 571.21
  Q 656.49 553.29 659.99 533.49
  Q 660.92 528.25 661.68 522.91
  Z"
/>
<path fill="#eff7f4" d="
  M 576.13 802.40
  Q 577.52 802.25 578.88 802.61
  Q 579.41 802.75 579.82 802.38
  Q 579.94 802.27 579.86 802.13
  Q 579.43 801.38 580.29 801.50
  Q 592.66 803.17 605.42 803.50
  Q 607.10 803.55 608.55 804.36
  Q 608.99 804.61 609.46 804.46
  Q 609.75 804.37 610.04 804.37
  Q 610.53 804.36 610.93 804.61
  Q 611.67 805.11 612.44 805.61
  Q 613.22 806.13 614.14 806.29
  Q 618.92 807.13 623.13 806.68
  Q 624.72 806.51 626.40 806.53
  Q 627.51 806.55 628.63 806.54
  Q 629.80 806.52 630.82 806.80
  Q 634.02 807.68 637.01 808.29
  Q 638.05 808.51 639.23 808.64
  Q 640.37 808.78 641.42 809.19
  A 1.41 1.35 -42.7 0 0 642.36 809.21
  Q 643.28 808.91 643.96 809.60
  Q 644.24 809.88 644.61 809.99
  Q 646.50 810.56 648.23 810.13
  Q 649.56 809.79 651.38 810.01
  Q 656.46 810.60 661.75 811.24
  C 663.41 811.44 666.61 812.14 667.93 813.20
  Q 669.31 814.30 670.92 814.88
  Q 671.70 815.17 672.02 814.42
  Q 672.18 814.04 672.52 814.29
  Q 673.71 815.18 675.05 815.60
  C 676.29 815.98 676.47 817.23 677.45 817.80
  Q 678.21 818.25 679.05 818.53
  Q 681.98 819.54 684.30 821.80
  Q 684.64 822.14 685.13 822.22
  Q 685.86 822.34 685.86 823.02
  Q 685.86 823.46 686.29 823.51
  C 688.45 823.74 689.37 825.21 690.90 826.48
  Q 691.71 827.16 692.01 828.24
  Q 692.38 829.56 692.68 830.80
  A 0.56 0.52 10.6 0 0 692.92 831.13
  L 693.19 831.30
  A 0.87 0.87 0.0 0 1 692.99 832.87
  C 692.02 833.18 691.51 833.81 690.44 833.99
  Q 683.43 835.16 677.96 835.71
  C 673.39 836.17 669.05 836.99 664.49 837.43
  Q 654.98 838.35 645.50 839.35
  Q 627.60 841.23 610.55 841.93
  C 595.22 842.56 581.91 843.41 568.00 843.83
  C 561.33 844.04 554.67 843.63 548.02 843.76
  Q 540.49 843.91 533.04 844.05
  Q 527.44 844.15 521.02 844.58
  Q 513.78 845.06 506.23 844.19
  Q 503.02 843.82 499.77 843.98
  C 496.95 844.12 494.20 843.58 491.43 843.62
  Q 480.77 843.77 468.95 843.15
  C 459.81 842.68 450.65 842.81 441.62 842.29
  C 437.69 842.06 433.76 842.57 429.87 842.37
  Q 414.94 841.58 399.87 840.46
  C 397.75 840.30 395.68 840.76 393.75 840.54
  Q 386.15 839.67 377.98 838.64
  Q 372.94 838.00 367.00 837.93
  C 361.16 837.87 355.37 836.75 349.36 836.66
  C 347.02 836.62 344.44 836.08 342.26 835.15
  A 3.05 3.05 0.0 0 1 340.43 832.02
  Q 340.93 827.50 343.18 822.66
  A 0.92 0.92 0.0 0 1 344.35 822.18
  Q 345.11 822.46 345.34 821.72
  Q 345.58 820.96 346.37 820.95
  Q 347.53 820.93 348.54 820.15
  Q 348.75 819.98 348.87 819.73
  Q 349.56 818.34 350.99 818.45
  Q 351.42 818.48 351.81 818.29
  Q 353.69 817.39 355.66 816.61
  Q 357.28 815.97 359.07 815.66
  Q 361.37 815.25 363.53 814.45
  Q 365.00 813.90 366.50 813.66
  Q 367.55 813.49 368.53 813.06
  Q 369.45 812.67 370.48 812.51
  Q 380.03 811.01 390.61 809.61
  Q 392.30 809.38 393.67 808.58
  Q 395.19 807.68 396.99 807.92
  Q 397.48 807.98 397.88 807.69
  Q 398.47 807.25 399.24 807.44
  A 0.93 0.92 -62.4 0 0 400.15 807.15
  Q 400.30 806.97 400.52 806.88
  Q 400.71 806.79 400.92 806.77
  Q 403.02 806.60 404.99 806.68
  Q 408.07 806.79 411.03 805.74
  Q 411.37 805.62 411.71 805.75
  Q 413.59 806.50 415.50 805.36
  Q 415.82 805.17 415.91 805.53
  Q 415.95 805.70 415.98 805.87
  Q 416.04 806.24 416.41 806.19
  Q 417.21 806.08 417.95 806.28
  Q 418.48 806.43 418.97 806.20
  Q 422.18 804.69 426.48 805.19
  Q 426.81 805.23 427.14 805.14
  Q 429.67 804.40 432.44 804.29
  Q 435.12 804.18 437.69 803.72
  Q 440.72 803.18 443.94 803.32
  C 446.92 803.44 449.77 802.55 452.82 802.83
  Q 455.79 803.11 458.74 802.62
  C 460.42 802.34 461.79 802.96 463.46 802.86
  Q 468.26 802.57 473.13 802.57
  Q 477.49 802.56 482.79 802.19
  Q 491.63 801.55 501.51 801.46
  Q 513.42 801.35 525.28 801.50
  Q 531.77 801.58 540.42 802.16
  Q 548.13 802.68 555.76 802.20
  Q 556.75 802.13 557.74 802.06
  Q 561.56 801.76 565.19 801.02
  Q 565.74 800.91 566.26 801.21
  Q 566.72 801.48 567.22 801.34
  Q 568.91 800.86 570.41 801.59
  Q 570.74 801.75 571.01 801.52
  Q 571.48 801.13 572.14 801.15
  Q 573.83 801.19 575.50 801.27
  Q 576.09 801.30 576.10 801.89
  L 576.11 802.39
  A 0.02 0.01 0.0 0 0 576.13 802.40
  Z"
/>
</svg>
